<svg width="512" height="316" viewBox="0 0 512 316" fill="none" xmlns="http://www.w3.org/2000/svg">
<g clip-path="url(#clip0_257_1986)">
<path d="M492 0.5H20C9.23045 0.5 0.5 9.23045 0.5 20V296C0.5 306.77 9.23045 315.5 20 315.5H492C502.77 315.5 511.5 306.77 511.5 296V20C511.5 9.23045 502.77 0.5 492 0.5Z" fill="url(#paint0_linear_257_1986)" stroke="#CCCCCC"/>
<path d="M132.832 25.2727V50H128.316L117.558 34.4368H117.377V50H112.149V25.2727H116.737L127.411 40.8239H127.628V25.2727H132.832ZM148.893 50H143.291L151.827 25.2727H158.564L167.088 50H161.486L155.292 30.9233H155.099L148.893 50ZM148.543 40.2805H161.776V44.3615H148.543V40.2805ZM173.581 29.5831V25.2727H193.89V29.5831H186.319V50H181.152V29.5831H173.581ZM209.942 25.2727V50H204.714V25.2727H209.942ZM244.446 37.6364C244.446 40.3329 243.935 42.6269 242.913 44.5185C241.899 46.41 240.514 47.8549 238.76 48.853C237.013 49.843 235.049 50.3381 232.868 50.3381C230.67 50.3381 228.698 49.839 226.951 48.8409C225.205 47.8428 223.824 46.398 222.81 44.5064C221.796 42.6148 221.289 40.3248 221.289 37.6364C221.289 34.9399 221.796 32.6458 222.81 30.7543C223.824 28.8627 225.205 27.4219 226.951 26.4318C228.698 25.4337 230.67 24.9347 232.868 24.9347C235.049 24.9347 237.013 25.4337 238.76 26.4318C240.514 27.4219 241.899 28.8627 242.913 30.7543C243.935 32.6458 244.446 34.9399 244.446 37.6364ZM239.146 37.6364C239.146 35.8897 238.884 34.4167 238.361 33.2173C237.846 32.018 237.118 31.1084 236.176 30.4886C235.234 29.8688 234.131 29.5589 232.868 29.5589C231.604 29.5589 230.501 29.8688 229.559 30.4886C228.618 31.1084 227.885 32.018 227.362 33.2173C226.847 34.4167 226.589 35.8897 226.589 37.6364C226.589 39.383 226.847 40.8561 227.362 42.0554C227.885 43.2547 228.618 44.1643 229.559 44.7841C230.501 45.4039 231.604 45.7138 232.868 45.7138C234.131 45.7138 235.234 45.4039 236.176 44.7841C237.118 44.1643 237.846 43.2547 238.361 42.0554C238.884 40.8561 239.146 39.383 239.146 37.6364ZM276.482 25.2727V50H271.966L261.208 34.4368H261.027V50H255.799V25.2727H260.387L271.061 40.8239H271.278V25.2727H276.482ZM292.543 50H286.941L295.477 25.2727H302.214L310.738 50H305.136L298.942 30.9233H298.749L292.543 50ZM292.193 40.2805H305.426V44.3615H292.193V40.2805ZM321.195 50V25.2727H326.423V45.6896H337.024V50H321.195ZM368.543 25.2727V50H363.315V25.2727H368.543ZM389.09 50H380.324V25.2727H389.162C391.649 25.2727 393.791 25.7678 395.585 26.7578C397.38 27.7398 398.761 29.1525 399.727 30.9957C400.701 32.839 401.188 35.0445 401.188 37.6122C401.188 40.188 400.701 42.4015 399.727 44.2528C398.761 46.1042 397.372 47.5249 395.561 48.5149C393.758 49.505 391.601 50 389.09 50ZM385.552 45.5206H388.872C390.418 45.5206 391.718 45.2469 392.772 44.6996C393.835 44.1442 394.632 43.2869 395.163 42.1278C395.702 40.9607 395.972 39.4555 395.972 37.6122C395.972 35.785 395.702 34.2919 395.163 33.1328C394.632 31.9737 393.839 31.1205 392.784 30.5732C391.73 30.0258 390.43 29.7521 388.885 29.7521H385.552V45.5206Z" fill="#F8C100"/>
<path d="M20 70.5H492" stroke="#CCCCCC"/>
<path d="M486 103H389C386.239 103 384 105.239 384 108V227C384 229.761 386.239 232 389 232H486C488.761 232 491 229.761 491 227V108C491 105.239 488.761 103 486 103Z" fill="#D9D9D9"/>
<path d="M456.603 197.055V182.534H419.264V197.055L437.934 213.65L456.603 197.055Z" fill="#E6AF78"/>
<path d="M485.47 203.847L459.801 197.807C459.414 197.716 459.057 197.561 458.723 197.374L437.933 209.501L417.954 196.787C417.425 197.288 416.774 197.64 416.066 197.808L390.397 203.847C386.649 204.729 384 208.074 384 211.924V228.17C384 230.462 385.857 232.319 388.149 232.319H487.718C490.009 232.319 491.866 230.462 491.866 228.17V211.924C491.867 208.073 489.218 204.729 485.47 203.847Z" fill="#EFF2FA"/>
<path d="M419.264 182.534V197.855C442.783 206.328 456.603 185.121 456.603 185.121V182.534H419.264Z" fill="#D29B6E"/>
<path d="M410.967 134.824L412.775 174.593C412.858 176.428 413.346 178.221 414.205 179.845C415.063 181.469 416.271 182.882 417.74 183.984L426.317 190.417C428.471 192.033 431.092 192.906 433.785 192.907H442.082C444.775 192.907 447.396 192.033 449.55 190.417L458.127 183.984C459.596 182.882 460.804 181.469 461.662 179.845C462.521 178.221 463.009 176.428 463.092 174.593L464.9 134.824H410.967Z" fill="#F0C087"/>
<path d="M431.711 143.122C440.008 143.122 452.454 141.047 455.406 134.824H410.967L412.775 174.592C412.858 176.427 413.346 178.221 414.205 179.845C415.064 181.468 416.271 182.882 417.74 183.984L426.317 190.417C428.472 192.033 431.092 192.906 433.785 192.906H437.934C433.785 192.906 425.487 184.609 425.487 174.237V149.345C425.487 147.27 427.562 143.122 431.711 143.122Z" fill="#E6AF78"/>
<path d="M399.229 218.857L385.787 206.782C384.629 208.246 384 210.058 384.001 211.924V228.171C384.001 230.462 385.858 232.319 388.149 232.319H402.67V226.573C402.67 225.117 402.363 223.678 401.771 222.348C401.178 221.019 400.312 219.829 399.229 218.857ZM476.638 218.857L490.08 206.782C491.238 208.246 491.868 210.058 491.867 211.924V228.171C491.867 230.462 490.009 232.319 487.718 232.319H473.198V226.573C473.198 225.117 473.504 223.678 474.097 222.348C474.69 221.019 475.556 219.829 476.638 218.857Z" fill="#E4EAF6"/>
<path d="M443.12 232.319H432.748L434.044 213.65H441.823L443.12 232.319Z" fill="#5B5D6E"/>
<path d="M443.12 209.501H432.748V213.405C432.748 214.686 433.786 215.724 435.067 215.724H440.8C442.081 215.724 443.119 214.686 443.119 213.405V209.501H443.12Z" fill="#515262"/>
<path d="M418.973 192.437L437.934 209.501C437.934 209.501 432.624 212.182 426.071 217.585C424.72 218.699 422.675 218.247 421.95 216.653L413.042 197.055L415.86 192.828C416.561 191.775 418.033 191.591 418.973 192.437Z" fill="#E4EAF6"/>
<path d="M456.894 192.437L437.934 209.501C437.934 209.501 443.244 212.182 449.796 217.585C451.148 218.699 453.193 218.247 453.918 216.653L462.826 197.055L460.008 192.828C459.306 191.775 457.834 191.591 456.894 192.437Z" fill="#E4EAF6"/>
<path d="M450.509 121.082L452.454 134.824C461.331 136.6 462.61 150.531 462.794 154.51C462.828 155.232 463.058 155.929 463.45 156.537L466.837 161.791C466.837 161.791 465.678 153.104 470.986 147.27C470.986 147.27 472.809 112.784 450.509 121.082Z" fill="#785550"/>
<path d="M468.918 160.906L466.576 170.274C466.441 170.813 466.13 171.292 465.691 171.635C465.253 171.977 464.713 172.163 464.157 172.163C463.549 172.163 462.962 171.941 462.506 171.538C462.05 171.136 461.757 170.581 461.682 169.978L460.484 160.397C460.163 157.833 462.163 155.568 464.747 155.568H464.749C467.545 155.568 469.596 158.195 468.918 160.906Z" fill="#F0C087"/>
<path d="M412.955 117.365L416.023 119.461C402.151 129.703 404.744 147.27 404.744 147.27C408.892 151.419 408.892 161.791 408.892 161.791L413.041 157.642C413.041 157.642 411.44 145.658 419.264 141.047C426.524 136.769 432.877 138.973 439.359 138.973C456.732 138.973 461.594 132.426 460.751 124.453C460.315 120.327 454.007 111.733 437.933 112.006C431.447 112.117 419.264 114.081 412.955 117.365Z" fill="#694B4B"/>
<path d="M411.745 137.158C411.745 137.158 409.541 128.471 416.023 119.461C402.151 129.703 404.744 147.271 404.744 147.271C408.892 151.419 408.892 161.791 408.892 161.791L413.041 157.642C413.041 157.642 411.44 145.658 419.264 141.048C426.524 136.769 432.877 138.973 439.359 138.973C442.185 138.973 444.647 138.784 446.84 138.46C433.461 138.908 425.574 128.774 411.745 137.158Z" fill="#5A4146"/>
<path d="M406.949 160.906L409.291 170.274C409.426 170.813 409.737 171.292 410.176 171.635C410.614 171.977 411.155 172.163 411.711 172.163C412.969 172.163 414.03 171.226 414.186 169.978L415.383 160.397C415.704 157.833 413.705 155.568 411.12 155.568H411.118C408.323 155.568 406.272 158.195 406.949 160.906Z" fill="#E6AF78"/>
<path d="M464.9 228.17H450.38C449.83 228.17 449.302 228.389 448.913 228.778C448.524 229.167 448.305 229.694 448.305 230.244V232.319H466.975V230.244C466.975 229.694 466.756 229.167 466.367 228.778C465.978 228.389 465.45 228.17 464.9 228.17Z" fill="#E4EAF6"/>
<path d="M28.0738 100.4V110.582H26.8806L21.3323 102.588H21.2329V110.582H20V100.4H21.1931L26.7613 108.414H26.8608V100.4H28.0738ZM30.9586 110.582H29.666L33.4046 100.4H34.6773L38.416 110.582H37.1234L34.0807 102.011H34.0012L30.9586 110.582ZM31.4359 106.605H36.6461V107.698H31.4359V106.605ZM40.0019 100.4H41.4735L44.9337 108.852H45.053L48.5133 100.4H49.9849V110.582H48.8315V102.846H48.732L45.5502 110.582H44.4366L41.2547 102.846H41.1553V110.582H40.0019V100.4ZM52.457 110.582V100.4H58.6019V101.494H53.6899V104.934H58.2837V106.028H53.6899V109.488H58.6814V110.582H52.457Z" fill="#333333"/>
<path d="M142.673 104.34V106.65H130.672V104.34H142.673ZM157.41 104.34V106.65H145.409V104.34H157.41ZM172.147 104.34V106.65H160.147V104.34H172.147ZM186.885 104.34V106.65H174.884V104.34H186.885ZM201.622 104.34V106.65H189.621V104.34H201.622ZM216.359 104.34V106.65H204.358V104.34H216.359ZM231.097 104.34V106.65H219.096V104.34H231.097ZM245.834 104.34V106.65H233.833V104.34H245.834ZM260.571 104.34V106.65H248.57V104.34H260.571Z" fill="#666666"/>
<path d="M23.142 162.491H20V152.309H23.2812C24.2689 152.309 25.1141 152.513 25.8167 152.921C26.5194 153.325 27.058 153.907 27.4325 154.666C27.807 155.421 27.9943 156.326 27.9943 157.38C27.9943 158.441 27.8054 159.354 27.4275 160.12C27.0497 160.882 26.4995 161.469 25.7769 161.879C25.0544 162.287 24.1761 162.491 23.142 162.491ZM21.2329 161.397H23.0625C23.9043 161.397 24.602 161.235 25.1555 160.91C25.709 160.585 26.1216 160.123 26.3934 159.523C26.6652 158.923 26.8011 158.209 26.8011 157.38C26.8011 156.558 26.6669 155.851 26.3984 155.257C26.1299 154.661 25.7289 154.203 25.1953 153.885C24.6616 153.564 23.9971 153.403 23.2017 153.403H21.2329V161.397ZM38.6534 157.4C38.6534 158.474 38.4595 159.402 38.0717 160.184C37.6839 160.966 37.1519 161.57 36.4758 161.994C35.7997 162.418 35.0274 162.63 34.159 162.63C33.2907 162.63 32.5184 162.418 31.8423 161.994C31.1661 161.57 30.6342 160.966 30.2464 160.184C29.8586 159.402 29.6647 158.474 29.6647 157.4C29.6647 156.326 29.8586 155.398 30.2464 154.616C30.6342 153.834 31.1661 153.231 31.8423 152.806C32.5184 152.382 33.2907 152.17 34.159 152.17C35.0274 152.17 35.7997 152.382 36.4758 152.806C37.1519 153.231 37.6839 153.834 38.0717 154.616C38.4595 155.398 38.6534 156.326 38.6534 157.4ZM37.4602 157.4C37.4602 156.518 37.3127 155.774 37.0177 155.168C36.726 154.561 36.33 154.102 35.8295 153.791C35.3323 153.479 34.7755 153.323 34.159 153.323C33.5426 153.323 32.9841 153.479 32.4836 153.791C31.9865 154.102 31.5904 154.561 31.2954 155.168C31.0037 155.774 30.8579 156.518 30.8579 157.4C30.8579 158.282 31.0037 159.026 31.2954 159.632C31.5904 160.239 31.9865 160.698 32.4836 161.009C32.9841 161.321 33.5426 161.477 34.159 161.477C34.7755 161.477 35.3323 161.321 35.8295 161.009C36.33 160.698 36.726 160.239 37.0177 159.632C37.3127 159.026 37.4602 158.282 37.4602 157.4ZM40.7265 162.491V152.309H44.2862C44.9955 152.309 45.5804 152.432 46.0411 152.677C46.5018 152.919 46.8449 153.245 47.0703 153.656C47.2956 154.064 47.4083 154.517 47.4083 155.014C47.4083 155.451 47.3304 155.812 47.1747 156.098C47.0222 156.383 46.82 156.608 46.5681 156.774C46.3196 156.939 46.0494 157.062 45.7578 157.142V157.241C46.0693 157.261 46.3825 157.37 46.6974 157.569C47.0123 157.768 47.2758 158.053 47.4879 158.424C47.7 158.795 47.8061 159.25 47.8061 159.786C47.8061 160.297 47.6901 160.756 47.4581 161.164C47.226 161.571 46.8598 161.894 46.3593 162.133C45.8589 162.372 45.2076 162.491 44.4055 162.491H40.7265ZM41.9595 161.397H44.4055C45.2109 161.397 45.7826 161.241 46.1207 160.93C46.4621 160.615 46.6328 160.234 46.6328 159.786C46.6328 159.442 46.5449 159.124 46.3693 158.832C46.1936 158.537 45.9434 158.302 45.6186 158.126C45.2938 157.947 44.9093 157.857 44.4652 157.857H41.9595V161.397ZM41.9595 156.784H44.2464C44.6176 156.784 44.9524 156.711 45.2507 156.565C45.5523 156.419 45.7909 156.214 45.9666 155.948C46.1456 155.683 46.235 155.372 46.235 155.014C46.235 154.566 46.0793 154.187 45.7677 153.875C45.4562 153.56 44.9623 153.403 44.2862 153.403H41.9595V156.784Z" fill="#333333"/>
<path d="M138.917 162.491L136.051 158.283L133.467 162.491H131.443L135.05 156.82L131.423 151.49H133.507L136.292 155.578L138.837 151.49H140.861L137.274 157.021L141.001 162.491H138.917ZM149.034 162.491L146.168 158.283L143.583 162.491H141.56L145.167 156.82L141.54 151.49H143.624L146.409 155.578L148.954 151.49H150.978L147.391 157.021L151.118 162.491H149.034ZM161.842 148.361L157.732 165.056H156.412L160.507 148.361H161.842ZM174.648 162.491L171.783 158.283L169.198 162.491H167.174L170.781 156.82L167.154 151.49H169.238L172.023 155.578L174.568 151.49H176.592L173.005 157.021L176.732 162.491H174.648ZM184.765 162.491L181.9 158.283L179.315 162.491H177.291L180.898 156.82L177.271 151.49H179.355L182.14 155.578L184.685 151.49H186.709L183.122 157.021L186.849 162.491H184.765ZM197.573 148.361L193.463 165.056H192.143L196.238 148.361H197.573ZM210.38 162.491L207.514 158.283L204.929 162.491H202.905L206.512 156.82L202.885 151.49H204.969L207.755 155.578L210.299 151.49H212.323L208.736 157.021L212.463 162.491H210.38ZM220.496 162.491L217.631 158.283L215.046 162.491H213.022L216.629 156.82L213.002 151.49H215.086L217.871 155.578L220.416 151.49H222.44L218.853 157.021L222.58 162.491H220.496ZM230.613 162.491L227.748 158.283L225.163 162.491H223.139L226.746 156.82L223.119 151.49H225.203L227.988 155.578L230.533 151.49H232.557L228.97 157.021L232.697 162.491H230.613ZM240.73 162.491L237.865 158.283L235.28 162.491H233.256L236.863 156.82L233.236 151.49H235.32L238.105 155.578L240.65 151.49H242.674L239.087 157.021L242.814 162.491H240.73Z" fill="#333333"/>
<path d="M26.0056 198.946C25.946 198.442 25.704 198.051 25.2798 197.772C24.8555 197.494 24.3352 197.355 23.7187 197.355C23.2679 197.355 22.8735 197.428 22.5355 197.573C22.2007 197.719 21.9389 197.92 21.75 198.175C21.5643 198.43 21.4715 198.72 21.4715 199.045C21.4715 199.317 21.5362 199.551 21.6654 199.746C21.798 199.938 21.967 200.099 22.1725 200.228C22.378 200.354 22.5935 200.459 22.8188 200.542C23.0442 200.621 23.2514 200.686 23.4403 200.735L24.4744 201.014C24.7395 201.083 25.0345 201.18 25.3593 201.302C25.6875 201.425 26.0007 201.592 26.299 201.804C26.6006 202.013 26.8491 202.282 27.0447 202.61C27.2402 202.938 27.338 203.341 27.338 203.818C27.338 204.368 27.1938 204.865 26.9055 205.309C26.6205 205.753 26.2028 206.106 25.6527 206.368C25.1058 206.63 24.4412 206.761 23.659 206.761C22.9299 206.761 22.2985 206.643 21.7649 206.408C21.2346 206.173 20.817 205.845 20.512 205.424C20.2104 205.003 20.0397 204.514 20 203.957H21.2727C21.3058 204.341 21.4351 204.66 21.6605 204.912C21.8892 205.16 22.1775 205.346 22.5255 205.468C22.8768 205.588 23.2547 205.647 23.659 205.647C24.1297 205.647 24.5523 205.571 24.9268 205.419C25.3013 205.263 25.598 205.047 25.8167 204.772C26.0355 204.494 26.1448 204.169 26.1448 203.798C26.1448 203.46 26.0504 203.185 25.8615 202.973C25.6725 202.761 25.424 202.588 25.1157 202.456C24.8075 202.323 24.4744 202.207 24.1164 202.108L22.8636 201.75C22.0681 201.521 21.4384 201.194 20.9744 200.77C20.5104 200.346 20.2784 199.791 20.2784 199.105C20.2784 198.535 20.4325 198.037 20.7407 197.613C21.0523 197.186 21.4699 196.854 21.9936 196.619C22.5206 196.38 23.1089 196.261 23.7585 196.261C24.4147 196.261 24.9981 196.379 25.5085 196.614C26.0189 196.846 26.4233 197.164 26.7215 197.569C27.0232 197.973 27.1822 198.432 27.1988 198.946H26.0056ZM29.3652 206.582V196.4H35.5101V197.494H30.5981V200.934H35.1919V202.028H30.5981V205.488H35.5896V206.582H29.3652ZM38.329 196.4L40.954 200.636H41.0335L43.6585 196.4H45.1102L41.9085 201.491L45.1102 206.582H43.6585L41.0335 202.426H40.954L38.329 206.582H36.8773L40.1585 201.491L36.8773 196.4H38.329Z" fill="#333333"/>
<path d="M131.79 195.491H133.682L138.131 206.358H138.285L142.733 195.491H144.625V208.582H143.143V198.636H143.015L138.924 208.582H137.492L133.401 198.636H133.273V208.582H131.79V195.491ZM148.341 208.582H146.679L151.486 195.491H153.122L157.929 208.582H156.267L152.355 197.562H152.253L148.341 208.582ZM148.954 203.468H155.653V204.875H148.954V203.468ZM159.968 208.582V195.491H161.553V207.176H167.638V208.582H159.968ZM170.093 208.582V195.491H177.994V196.897H171.678V201.321H177.584V202.727H171.678V207.176H178.096V208.582H170.093Z" fill="#333333"/>
<path d="M28.0738 239.491V249.673H26.8806L21.3323 241.679H21.2329V249.673H20V239.491H21.1931L26.7613 247.505H26.8608V239.491H28.0738ZM30.9586 249.673H29.666L33.4046 239.491H34.6773L38.416 249.673H37.1234L34.0807 241.102H34.0012L30.9586 249.673ZM31.4359 245.696H36.6461V246.789H31.4359V245.696ZM38.2556 240.585V239.491H45.892V240.585H42.6903V249.673H41.4573V240.585H38.2556ZM49.0278 239.491V249.673H47.7949V239.491H49.0278ZM60.0909 244.582C60.0909 245.656 59.897 246.584 59.5092 247.366C59.1214 248.148 58.5894 248.752 57.9133 249.176C57.2372 249.6 56.4649 249.812 55.5965 249.812C54.7282 249.812 53.9559 249.6 53.2798 249.176C52.6036 248.752 52.0717 248.148 51.6839 247.366C51.2961 246.584 51.1022 245.656 51.1022 244.582C51.1022 243.508 51.2961 242.58 51.6839 241.798C52.0717 241.016 52.6036 240.413 53.2798 239.988C53.9559 239.564 54.7282 239.352 55.5965 239.352C56.4649 239.352 57.2372 239.564 57.9133 239.988C58.5894 240.413 59.1214 241.016 59.5092 241.798C59.897 242.58 60.0909 243.508 60.0909 244.582ZM58.8977 244.582C58.8977 243.7 58.7502 242.956 58.4552 242.35C58.1635 241.743 57.7675 241.284 57.267 240.973C56.7698 240.661 56.213 240.505 55.5965 240.505C54.9801 240.505 54.4216 240.661 53.9211 240.973C53.424 241.284 53.0279 241.743 52.7329 242.35C52.4412 242.956 52.2954 243.7 52.2954 244.582C52.2954 245.464 52.4412 246.208 52.7329 246.814C53.0279 247.421 53.424 247.88 53.9211 248.191C54.4216 248.503 54.9801 248.659 55.5965 248.659C56.213 248.659 56.7698 248.503 57.267 248.191C57.7675 247.88 58.1635 247.421 58.4552 246.814C58.7502 246.208 58.8977 245.464 58.8977 244.582ZM70.2379 239.491V249.673H69.0447L63.4964 241.679H63.397V249.673H62.164V239.491H63.3572L68.9254 247.505H69.0248V239.491H70.2379ZM73.1226 249.673H71.83L75.5687 239.491H76.8414L80.58 249.673H79.2874L76.2448 241.102H76.1653L73.1226 249.673ZM73.5999 245.696H78.8101V246.789H73.5999V245.696ZM82.166 249.673V239.491H83.3989V248.579H88.1319V249.673H82.166ZM91.2739 239.491V249.673H90.041V239.491H91.2739ZM93.1892 240.585V239.491H100.826V240.585H97.6239V249.673H96.3909V240.585H93.1892ZM101.853 239.491H103.265L106.089 244.244H106.209L109.032 239.491H110.444L106.765 245.477V249.673H105.532V245.477L101.853 239.491Z" fill="#333333"/>
<path d="M132.937 238.582V251.673H131.352V238.582H132.937ZM146.497 238.582V251.673H144.962L137.829 241.395H137.701V251.673H136.116V238.582H137.65L144.809 248.886H144.937V238.582H146.497ZM153.708 251.673H149.669V238.582H153.887C155.157 238.582 156.244 238.844 157.147 239.368C158.051 239.888 158.743 240.636 159.225 241.612C159.706 242.584 159.947 243.747 159.947 245.102C159.947 246.466 159.704 247.64 159.218 248.624C158.733 249.604 158.025 250.358 157.096 250.887C156.167 251.411 155.038 251.673 153.708 251.673ZM151.254 250.267H153.606C154.689 250.267 155.586 250.058 156.297 249.64C157.009 249.223 157.539 248.628 157.889 247.857C158.238 247.086 158.413 246.167 158.413 245.102C158.413 244.045 158.24 243.135 157.895 242.373C157.55 241.606 157.034 241.017 156.348 240.608C155.662 240.195 154.808 239.988 153.785 239.988H151.254V250.267ZM164.191 238.582V251.673H162.606V238.582H164.191ZM167.907 251.673H166.245L171.052 238.582H172.688L177.495 251.673H175.833L171.921 240.653H171.819L167.907 251.673ZM168.52 246.559H175.219V247.966H168.52V246.559ZM189.915 238.582V251.673H188.38L181.247 241.395H181.119V251.673H179.534V238.582H181.068L188.227 248.886H188.355V238.582H189.915Z" fill="#333333"/>
</g>
<defs>
<linearGradient id="paint0_linear_257_1986" x1="256" y1="117" x2="256" y2="310" gradientUnits="userSpaceOnUse">
<stop stop-color="white"/>
<stop offset="1" stop-color="#E6E6E6"/>
</linearGradient>
<clipPath id="clip0_257_1986">
<rect width="512" height="316" fill="white"/>
</clipPath>
</defs>
</svg>
