<svg width="120" height="120" viewBox="0 0 120 120" fill="none" xmlns="http://www.w3.org/2000/svg">
<g clip-path="url(#clip0_2374_5046)">
<path d="M60 0C26.8352 0 0 26.8376 0 60C0 93.1648 26.8376 120 60 120C93.1648 120 120 93.1624 120 60C120 26.8352 93.1624 0 60 0ZM60 110.625C32.0173 110.625 9.375 87.9809 9.375 60C9.375 32.0173 32.0191 9.375 60 9.375C87.9827 9.375 110.625 32.0191 110.625 60C110.625 87.9827 87.9809 110.625 60 110.625Z" fill="#F6C37D"/>
<path d="M60 15.2056C57.4111 15.2056 55.3125 17.3042 55.3125 19.8931V80.0789C55.3125 82.6678 57.4111 84.7664 60 84.7664C62.5889 84.7664 64.6875 82.6678 64.6875 80.0789V19.8931C64.6875 17.3042 62.5889 15.2056 60 15.2056Z" fill="#F6C37D"/>
<path d="M60 103.163C63.4949 103.163 66.3281 100.329 66.3281 96.8345C66.3281 93.3395 63.4949 90.5063 60 90.5063C56.5051 90.5063 53.6719 93.3395 53.6719 96.8345C53.6719 100.329 56.5051 103.163 60 103.163Z" fill="#F6C37D"/>
</g>
<defs>
<clipPath id="clip0_2374_5046">
<rect width="120" height="120" fill="white"/>
</clipPath>
</defs>
</svg>
