<svg width="505" height="312" viewBox="0 0 505 312" fill="none" xmlns="http://www.w3.org/2000/svg">
<g clip-path="url(#clip0_257_2015)">
<path d="M485.748 -0.392151H19.7449C9.1122 -0.392151 0.492676 8.26602 0.492676 18.9464V292.661C0.492676 303.342 9.1122 312 19.7449 312H485.748C496.38 312 505 303.342 505 292.661V18.9464C505 8.26602 496.38 -0.392151 485.748 -0.392151Z" fill="url(#paint0_linear_257_2015)" stroke="#CCCCCC"/>
<path d="M125.832 21.2727V46H121.316L110.558 30.4368H110.377V46H105.149V21.2727H109.737L120.411 36.8239H120.628V21.2727H125.832ZM141.893 46H136.291L144.827 21.2727H151.564L160.088 46H154.486L148.292 26.9233H148.099L141.893 46ZM141.543 36.2805H154.776V40.3615H141.543V36.2805ZM166.581 25.5831V21.2727H186.89V25.5831H179.319V46H174.152V25.5831H166.581ZM202.942 21.2727V46H197.714V21.2727H202.942ZM237.446 33.6364C237.446 36.3329 236.935 38.6269 235.913 40.5185C234.899 42.41 233.514 43.8549 231.76 44.853C230.013 45.843 228.049 46.3381 225.868 46.3381C223.67 46.3381 221.698 45.839 219.951 44.8409C218.205 43.8428 216.824 42.398 215.81 40.5064C214.796 38.6148 214.289 36.3248 214.289 33.6364C214.289 30.9399 214.796 28.6458 215.81 26.7543C216.824 24.8627 218.205 23.4219 219.951 22.4318C221.698 21.4337 223.67 20.9347 225.868 20.9347C228.049 20.9347 230.013 21.4337 231.76 22.4318C233.514 23.4219 234.899 24.8627 235.913 26.7543C236.935 28.6458 237.446 30.9399 237.446 33.6364ZM232.146 33.6364C232.146 31.8897 231.884 30.4167 231.361 29.2173C230.846 28.018 230.118 27.1084 229.176 26.4886C228.234 25.8688 227.131 25.5589 225.868 25.5589C224.604 25.5589 223.501 25.8688 222.559 26.4886C221.618 27.1084 220.885 28.018 220.362 29.2173C219.847 30.4167 219.589 31.8897 219.589 33.6364C219.589 35.383 219.847 36.8561 220.362 38.0554C220.885 39.2547 221.618 40.1643 222.559 40.7841C223.501 41.4039 224.604 41.7138 225.868 41.7138C227.131 41.7138 228.234 41.4039 229.176 40.7841C230.118 40.1643 230.846 39.2547 231.361 38.0554C231.884 36.8561 232.146 35.383 232.146 33.6364ZM269.482 21.2727V46H264.966L254.208 30.4368H254.027V46H248.799V21.2727H253.387L264.061 36.8239H264.278V21.2727H269.482ZM285.543 46H279.941L288.477 21.2727H295.214L303.738 46H298.136L291.942 26.9233H291.749L285.543 46ZM285.193 36.2805H298.426V40.3615H285.193V36.2805ZM314.195 46V21.2727H319.423V41.6896H330.024V46H314.195ZM361.543 21.2727V46H356.315V21.2727H361.543ZM382.09 46H373.324V21.2727H382.162C384.649 21.2727 386.791 21.7678 388.585 22.7578C390.38 23.7398 391.761 25.1525 392.727 26.9957C393.701 28.839 394.188 31.0445 394.188 33.6122C394.188 36.188 393.701 38.4015 392.727 40.2528C391.761 42.1042 390.372 43.5249 388.561 44.5149C386.758 45.505 384.601 46 382.09 46ZM378.552 41.5206H381.872C383.418 41.5206 384.718 41.2469 385.772 40.6996C386.835 40.1442 387.632 39.2869 388.163 38.1278C388.702 36.9607 388.972 35.4555 388.972 33.6122C388.972 31.785 388.702 30.2919 388.163 29.1328C387.632 27.9737 386.839 27.1205 385.784 26.5732C384.73 26.0258 383.43 25.7521 381.885 25.7521H378.552V41.5206Z" fill="#F8C100"/>
<path d="M13 66.5H485" stroke="#CCCCCC"/>
<path d="M138.778 108.194V110.504H126.777V108.194H138.778ZM153.515 108.194V110.504H141.514V108.194H153.515ZM168.252 108.194V110.504H156.252V108.194H168.252ZM182.99 108.194V110.504H170.989V108.194H182.99ZM197.727 108.194V110.504H185.726V108.194H197.727ZM212.464 108.194V110.504H200.463V108.194H212.464ZM227.201 108.194V110.504H215.201V108.194H227.201ZM241.939 108.194V110.504H229.938V108.194H241.939ZM256.676 108.194V110.504H244.675V108.194H256.676ZM271.413 108.194V110.504H259.413V108.194H271.413ZM286.151 108.194V110.504H274.15V108.194H286.151ZM300.888 108.194V110.504H288.887V108.194H300.888ZM315.625 108.194V110.504H303.624V108.194H315.625ZM330.362 108.194V110.504H318.362V108.194H330.362ZM345.1 108.194V110.504H333.099V108.194H345.1ZM359.837 108.194V110.504H347.836V108.194H359.837ZM374.574 108.194V110.504H362.574V108.194H374.574ZM389.312 108.194V110.504H377.311V108.194H389.312ZM404.049 108.194V110.504H392.048V108.194H404.049ZM418.786 108.194V110.504H406.785V108.194H418.786ZM433.523 108.194V110.504H421.523V108.194H433.523ZM448.261 108.194V110.504H436.26V108.194H448.261ZM462.998 108.194V110.504H450.997V108.194H462.998ZM138.778 128.194V130.504H126.777V128.194H138.778ZM153.515 128.194V130.504H141.514V128.194H153.515ZM168.252 128.194V130.504H156.252V128.194H168.252ZM182.99 128.194V130.504H170.989V128.194H182.99ZM197.727 128.194V130.504H185.726V128.194H197.727ZM212.464 128.194V130.504H200.463V128.194H212.464ZM227.201 128.194V130.504H215.201V128.194H227.201ZM241.939 128.194V130.504H229.938V128.194H241.939ZM256.676 128.194V130.504H244.675V128.194H256.676Z" fill="#666666"/>
<path d="M24.2926 113H23L26.7386 102.818H28.0113L31.75 113H30.4573L27.4147 104.429H27.3352L24.2926 113ZM24.7698 109.023H29.9801V110.116H24.7698V109.023ZM36.4779 113H33.3359V102.818H36.6171C37.6048 102.818 38.45 103.022 39.1527 103.43C39.8553 103.834 40.3939 104.416 40.7684 105.175C41.1429 105.93 41.3302 106.835 41.3302 107.889C41.3302 108.95 41.1413 109.863 40.7634 110.629C40.3856 111.391 39.8354 111.978 39.1129 112.388C38.3903 112.796 37.512 113 36.4779 113ZM34.5688 111.906H36.3984C37.2402 111.906 37.9379 111.744 38.4914 111.419C39.0449 111.094 39.4576 110.632 39.7294 110.032C40.0011 109.432 40.137 108.718 40.137 107.889C40.137 107.067 40.0028 106.36 39.7343 105.766C39.4659 105.17 39.0648 104.712 38.5312 104.394C37.9976 104.073 37.3331 103.912 36.5376 103.912H34.5688V111.906ZM46.5404 113H43.3984V102.818H46.6796C47.6673 102.818 48.5125 103.022 49.2152 103.43C49.9178 103.834 50.4564 104.416 50.8309 105.175C51.2054 105.93 51.3927 106.835 51.3927 107.889C51.3927 108.95 51.2038 109.863 50.8259 110.629C50.4481 111.391 49.8979 111.978 49.1754 112.388C48.4528 112.796 47.5745 113 46.5404 113ZM44.6313 111.906H46.4609C47.3027 111.906 48.0004 111.744 48.5539 111.419C49.1074 111.094 49.5201 110.632 49.7919 110.032C50.0636 109.432 50.1995 108.718 50.1995 107.889C50.1995 107.067 50.0653 106.36 49.7968 105.766C49.5284 105.17 49.1273 104.712 48.5937 104.394C48.0601 104.073 47.3956 103.912 46.6001 103.912H44.6313V111.906ZM53.4609 113V102.818H56.9012C57.6967 102.818 58.3496 102.954 58.86 103.226C59.3705 103.494 59.7483 103.864 59.9936 104.335C60.2388 104.805 60.3615 105.34 60.3615 105.94C60.3615 106.54 60.2388 107.072 59.9936 107.536C59.7483 108 59.3721 108.365 58.865 108.63C58.3579 108.892 57.7099 109.023 56.9211 109.023H54.137V107.909H56.8813C57.4249 107.909 57.8624 107.83 58.1938 107.67C58.5286 107.511 58.7706 107.286 58.9197 106.994C59.0722 106.699 59.1484 106.348 59.1484 105.94C59.1484 105.533 59.0722 105.176 58.9197 104.871C58.7672 104.567 58.5236 104.331 58.1889 104.165C57.8541 103.996 57.4116 103.912 56.8615 103.912H54.6938V113H53.4609ZM58.2535 108.426L60.7592 113H59.3274L56.8615 108.426H58.2535ZM62.416 113V102.818H68.5609V103.912H63.6489V107.352H68.2427V108.446H63.6489V111.906H68.6404V113H62.416ZM76.3513 105.364C76.2917 104.86 76.0497 104.469 75.6255 104.19C75.2012 103.912 74.6809 103.773 74.0644 103.773C73.6137 103.773 73.2192 103.846 72.8812 103.991C72.5464 104.137 72.2846 104.338 72.0957 104.593C71.9101 104.848 71.8172 105.138 71.8172 105.463C71.8172 105.735 71.8819 105.969 72.0111 106.164C72.1437 106.356 72.3128 106.517 72.5182 106.646C72.7237 106.772 72.9392 106.877 73.1645 106.96C73.3899 107.039 73.5971 107.104 73.786 107.153L74.8201 107.432C75.0852 107.501 75.3802 107.598 75.705 107.72C76.0332 107.843 76.3464 108.01 76.6447 108.222C76.9463 108.431 77.1949 108.7 77.3904 109.028C77.586 109.356 77.6837 109.759 77.6837 110.236C77.6837 110.786 77.5396 111.283 77.2512 111.727C76.9662 112.171 76.5485 112.524 75.9984 112.786C75.4515 113.048 74.7869 113.179 74.0047 113.179C73.2756 113.179 72.6442 113.061 72.1106 112.826C71.5803 112.591 71.1627 112.263 70.8577 111.842C70.5561 111.421 70.3854 110.932 70.3457 110.375H71.6184C71.6515 110.759 71.7808 111.078 72.0062 111.33C72.2349 111.578 72.5232 111.764 72.8712 111.886C73.2226 112.006 73.6004 112.065 74.0047 112.065C74.4754 112.065 74.898 111.989 75.2725 111.837C75.647 111.681 75.9437 111.465 76.1624 111.19C76.3812 110.912 76.4905 110.587 76.4905 110.216C76.4905 109.878 76.3961 109.603 76.2072 109.391C76.0182 109.179 75.7697 109.006 75.4614 108.874C75.1532 108.741 74.8201 108.625 74.4621 108.526L73.2093 108.168C72.4138 107.939 71.7841 107.612 71.3201 107.188C70.8561 106.764 70.6241 106.209 70.6241 105.523C70.6241 104.953 70.7782 104.455 71.0864 104.031C71.398 103.604 71.8156 103.272 72.3393 103.037C72.8663 102.798 73.4546 102.679 74.1042 102.679C74.7604 102.679 75.3438 102.797 75.8542 103.032C76.3646 103.264 76.769 103.582 77.0672 103.987C77.3689 104.391 77.5279 104.85 77.5445 105.364H76.3513ZM85.2791 105.364C85.2194 104.86 84.9775 104.469 84.5532 104.19C84.129 103.912 83.6086 103.773 82.9921 103.773C82.5414 103.773 82.147 103.846 81.8089 103.991C81.4741 104.137 81.2123 104.338 81.0234 104.593C80.8378 104.848 80.745 105.138 80.745 105.463C80.745 105.735 80.8096 105.969 80.9389 106.164C81.0715 106.356 81.2405 106.517 81.446 106.646C81.6515 106.772 81.8669 106.877 82.0923 106.96C82.3177 107.039 82.5248 107.104 82.7137 107.153L83.7478 107.432C84.013 107.501 84.308 107.598 84.6328 107.72C84.9609 107.843 85.2741 108.01 85.5724 108.222C85.874 108.431 86.1226 108.7 86.3181 109.028C86.5137 109.356 86.6115 109.759 86.6115 110.236C86.6115 110.786 86.4673 111.283 86.1789 111.727C85.8939 112.171 85.4763 112.524 84.9261 112.786C84.3792 113.048 83.7147 113.179 82.9325 113.179C82.2033 113.179 81.5719 113.061 81.0383 112.826C80.508 112.591 80.0904 112.263 79.7855 111.842C79.4839 111.421 79.3132 110.932 79.2734 110.375H80.5461C80.5793 110.759 80.7085 111.078 80.9339 111.33C81.1626 111.578 81.4509 111.764 81.799 111.886C82.1503 112.006 82.5281 112.065 82.9325 112.065C83.4031 112.065 83.8257 111.989 84.2002 111.837C84.5748 111.681 84.8714 111.465 85.0902 111.19C85.3089 110.912 85.4183 110.587 85.4183 110.216C85.4183 109.878 85.3238 109.603 85.1349 109.391C84.946 109.179 84.6974 109.006 84.3892 108.874C84.0809 108.741 83.7478 108.625 83.3899 108.526L82.137 108.168C81.3416 107.939 80.7118 107.612 80.2478 107.188C79.7838 106.764 79.5518 106.209 79.5518 105.523C79.5518 104.953 79.7059 104.455 80.0142 104.031C80.3257 103.604 80.7433 103.272 81.267 103.037C81.794 102.798 82.3823 102.679 83.0319 102.679C83.6882 102.679 84.2715 102.797 84.7819 103.032C85.2923 103.264 85.6967 103.582 85.995 103.987C86.2966 104.391 86.4557 104.85 86.4723 105.364H85.2791Z" fill="#333333"/>
<path d="M31.5909 174.755H30.358C30.2851 174.4 30.1575 174.089 29.9752 173.82C29.7962 173.552 29.5774 173.326 29.3189 173.144C29.0637 172.959 28.7803 172.819 28.4688 172.727C28.1572 172.634 27.8324 172.587 27.4943 172.587C26.8779 172.587 26.3194 172.743 25.8189 173.055C25.3218 173.366 24.9257 173.825 24.6307 174.432C24.339 175.038 24.1932 175.782 24.1932 176.664C24.1932 177.546 24.339 178.29 24.6307 178.896C24.9257 179.503 25.3218 179.962 25.8189 180.273C26.3194 180.585 26.8779 180.741 27.4943 180.741C27.8324 180.741 28.1572 180.694 28.4688 180.602C28.7803 180.509 29.0637 180.371 29.3189 180.189C29.5774 180.003 29.7962 179.776 29.9752 179.508C30.1575 179.236 30.2851 178.925 30.358 178.573H31.5909C31.4981 179.094 31.3291 179.559 31.0838 179.97C30.8386 180.381 30.5336 180.731 30.1691 181.019C29.8045 181.304 29.3952 181.521 28.9411 181.67C28.4903 181.82 28.0081 181.894 27.4943 181.894C26.626 181.894 25.8537 181.682 25.1776 181.258C24.5014 180.834 23.9695 180.23 23.5817 179.448C23.1939 178.666 23 177.738 23 176.664C23 175.59 23.1939 174.662 23.5817 173.88C23.9695 173.098 24.5014 172.495 25.1776 172.07C25.8537 171.646 26.626 171.434 27.4943 171.434C28.0081 171.434 28.4903 171.509 28.9411 171.658C29.3952 171.807 29.8045 172.026 30.1691 172.314C30.5336 172.599 30.8386 172.947 31.0838 173.358C31.3291 173.766 31.4981 174.231 31.5909 174.755ZM34.8163 171.573V181.755H33.5833V171.573H34.8163ZM36.7316 172.667V171.573H44.3679V172.667H41.1662V181.755H39.9333V172.667H36.7316ZM45.3958 171.573H46.8077L49.6316 176.326H49.7509L52.5748 171.573H53.9867L50.3077 177.559V181.755H49.0748V177.559L45.3958 171.573Z" fill="#333333"/>
<path d="M126.75 170.208H128.642L133.091 181.075H133.245L137.693 170.208H139.585V183.299H138.103V173.353H137.975L133.884 183.299H132.452L128.361 173.353H128.233V183.299H126.75V170.208ZM148.747 179.285V173.481H150.255V183.299H148.747V181.637H148.645C148.414 182.136 148.057 182.56 147.571 182.909C147.085 183.254 146.471 183.427 145.73 183.427C145.116 183.427 144.571 183.293 144.093 183.024C143.616 182.751 143.241 182.342 142.968 181.797C142.696 181.247 142.559 180.555 142.559 179.719V173.481H144.068V179.617C144.068 180.333 144.268 180.904 144.669 181.33C145.074 181.756 145.589 181.969 146.216 181.969C146.591 181.969 146.972 181.874 147.36 181.682C147.752 181.49 148.08 181.196 148.344 180.8C148.613 180.403 148.747 179.898 148.747 179.285ZM153.018 183.299V173.481H154.476V175.015H154.604C154.808 174.491 155.138 174.084 155.594 173.794C156.05 173.5 156.598 173.353 157.237 173.353C157.885 173.353 158.424 173.5 158.854 173.794C159.289 174.084 159.628 174.491 159.871 175.015H159.973C160.224 174.508 160.601 174.105 161.104 173.807C161.607 173.504 162.21 173.353 162.913 173.353C163.791 173.353 164.509 173.628 165.067 174.178C165.626 174.723 165.905 175.573 165.905 176.728V183.299H164.396V176.728C164.396 176.004 164.198 175.486 163.802 175.175C163.405 174.864 162.939 174.708 162.402 174.708C161.712 174.708 161.177 174.917 160.797 175.335C160.418 175.748 160.229 176.272 160.229 176.907V183.299H158.694V176.575C158.694 176.016 158.513 175.567 158.151 175.226C157.789 174.881 157.322 174.708 156.751 174.708C156.359 174.708 155.993 174.812 155.652 175.021C155.315 175.23 155.042 175.52 154.834 175.891C154.629 176.257 154.527 176.681 154.527 177.163V183.299H153.018ZM168.867 183.299V170.208H170.376V175.04H170.504C170.615 174.87 170.768 174.653 170.964 174.388C171.164 174.12 171.45 173.881 171.821 173.673C172.196 173.46 172.703 173.353 173.342 173.353C174.169 173.353 174.897 173.56 175.528 173.973C176.159 174.386 176.651 174.972 177.004 175.731C177.358 176.489 177.535 177.384 177.535 178.415C177.535 179.455 177.358 180.357 177.004 181.119C176.651 181.878 176.161 182.466 175.534 182.884C174.908 183.297 174.186 183.504 173.367 183.504C172.737 183.504 172.232 183.399 171.853 183.19C171.473 182.977 171.181 182.736 170.977 182.468C170.772 182.195 170.615 181.969 170.504 181.79H170.325V183.299H168.867ZM170.35 178.39C170.35 179.131 170.459 179.786 170.676 180.352C170.894 180.915 171.211 181.356 171.629 181.675C172.046 181.991 172.558 182.148 173.163 182.148C173.794 182.148 174.32 181.982 174.742 181.65C175.168 181.313 175.487 180.861 175.701 180.295C175.918 179.724 176.027 179.089 176.027 178.39C176.027 177.7 175.92 177.077 175.707 176.523C175.498 175.965 175.181 175.524 174.754 175.2C174.333 174.872 173.802 174.708 173.163 174.708C172.549 174.708 172.034 174.864 171.616 175.175C171.198 175.482 170.883 175.912 170.67 176.466C170.457 177.016 170.35 177.657 170.35 178.39ZM182.732 183.529C182.11 183.529 181.545 183.412 181.038 183.178C180.531 182.939 180.128 182.596 179.83 182.148C179.531 181.697 179.382 181.151 179.382 180.512C179.382 179.95 179.493 179.494 179.715 179.144C179.936 178.79 180.232 178.513 180.603 178.313C180.974 178.113 181.383 177.964 181.83 177.866C182.282 177.763 182.736 177.683 183.192 177.623C183.789 177.546 184.272 177.489 184.643 177.45C185.018 177.408 185.291 177.337 185.461 177.239C185.636 177.141 185.723 176.971 185.723 176.728V176.677C185.723 176.046 185.551 175.556 185.205 175.207C184.865 174.857 184.347 174.683 183.652 174.683C182.932 174.683 182.367 174.84 181.958 175.156C181.549 175.471 181.262 175.808 181.095 176.165L179.664 175.654C179.919 175.058 180.26 174.593 180.686 174.261C181.117 173.924 181.585 173.69 182.093 173.558C182.604 173.421 183.107 173.353 183.601 173.353C183.916 173.353 184.279 173.391 184.688 173.468C185.101 173.54 185.5 173.692 185.883 173.922C186.271 174.152 186.593 174.499 186.848 174.964C187.104 175.428 187.232 176.05 187.232 176.83V183.299H185.723V181.969H185.647C185.544 182.183 185.374 182.411 185.135 182.653C184.897 182.896 184.579 183.103 184.183 183.273C183.786 183.444 183.303 183.529 182.732 183.529ZM182.962 182.174C183.558 182.174 184.061 182.057 184.47 181.822C184.884 181.588 185.195 181.286 185.404 180.915C185.617 180.544 185.723 180.154 185.723 179.745V178.364C185.659 178.441 185.519 178.511 185.301 178.575C185.088 178.635 184.841 178.688 184.56 178.735C184.283 178.778 184.012 178.816 183.748 178.85C183.488 178.88 183.277 178.906 183.115 178.927C182.723 178.978 182.357 179.061 182.016 179.176C181.679 179.287 181.406 179.455 181.198 179.681C180.993 179.903 180.891 180.205 180.891 180.589C180.891 181.113 181.085 181.509 181.473 181.778C181.865 182.042 182.361 182.174 182.962 182.174ZM189.985 183.299V173.481H191.494V183.299H189.985ZM190.752 171.844C190.458 171.844 190.205 171.744 189.992 171.544C189.783 171.344 189.678 171.103 189.678 170.822C189.678 170.54 189.783 170.3 189.992 170.099C190.205 169.899 190.458 169.799 190.752 169.799C191.046 169.799 191.298 169.899 191.506 170.099C191.72 170.3 191.826 170.54 191.826 170.822C191.826 171.103 191.72 171.344 191.506 171.544C191.298 171.744 191.046 171.844 190.752 171.844Z" fill="#333333"/>
<path d="M29.0056 218.553C28.946 218.049 28.704 217.658 28.2798 217.379C27.8555 217.101 27.3352 216.962 26.7187 216.962C26.2679 216.962 25.8735 217.035 25.5355 217.18C25.2007 217.326 24.9389 217.527 24.75 217.782C24.5643 218.037 24.4715 218.327 24.4715 218.652C24.4715 218.924 24.5362 219.158 24.6654 219.353C24.798 219.545 24.967 219.706 25.1725 219.835C25.378 219.961 25.5935 220.066 25.8188 220.149C26.0442 220.228 26.2514 220.293 26.4403 220.342L27.4744 220.621C27.7395 220.69 28.0345 220.787 28.3593 220.909C28.6875 221.032 29.0007 221.199 29.299 221.411C29.6006 221.62 29.8491 221.889 30.0447 222.217C30.2402 222.545 30.338 222.948 30.338 223.425C30.338 223.975 30.1938 224.472 29.9055 224.916C29.6205 225.36 29.2028 225.713 28.6527 225.975C28.1058 226.237 27.4412 226.368 26.659 226.368C25.9299 226.368 25.2985 226.25 24.7649 226.015C24.2346 225.78 23.817 225.452 23.512 225.031C23.2104 224.61 23.0397 224.121 23 223.564H24.2727C24.3058 223.948 24.4351 224.267 24.6605 224.519C24.8892 224.767 25.1775 224.953 25.5255 225.075C25.8768 225.195 26.2547 225.254 26.659 225.254C27.1297 225.254 27.5523 225.178 27.9268 225.026C28.3013 224.87 28.598 224.654 28.8167 224.379C29.0355 224.101 29.1448 223.776 29.1448 223.405C29.1448 223.067 29.0504 222.792 28.8615 222.58C28.6725 222.368 28.424 222.195 28.1157 222.063C27.8075 221.93 27.4744 221.814 27.1164 221.715L25.8636 221.357C25.0681 221.128 24.4384 220.801 23.9744 220.377C23.5104 219.953 23.2784 219.398 23.2784 218.712C23.2784 218.142 23.4325 217.644 23.7407 217.22C24.0523 216.793 24.4699 216.461 24.9936 216.226C25.5206 215.987 26.1089 215.868 26.7585 215.868C27.4147 215.868 27.9981 215.986 28.5085 216.221C29.0189 216.453 29.4233 216.771 29.7215 217.176C30.0232 217.58 30.1822 218.039 30.1988 218.553H29.0056ZM31.8084 217.101V216.007H39.4447V217.101H36.243V226.189H35.0101V217.101H31.8084ZM40.5758 226.189H39.2832L43.0218 216.007H44.2945L48.0332 226.189H46.7405L43.6979 217.618H43.6184L40.5758 226.189ZM41.053 222.212H46.2633V223.305H41.053V222.212ZM47.8728 217.101V216.007H55.5092V217.101H52.3075V226.189H51.0745V217.101H47.8728ZM57.4121 226.189V216.007H63.557V217.101H58.645V220.541H63.2388V221.635H58.645V225.095H63.6365V226.189H57.4121Z" fill="#333333"/>
<path d="M126.79 214.458H128.682L133.131 225.325H133.285L137.733 214.458H139.625V227.549H138.143V217.603H138.015L133.924 227.549H132.492L128.401 217.603H128.273V227.549H126.79V214.458ZM145.489 227.779C144.866 227.779 144.302 227.662 143.795 227.428C143.288 227.189 142.885 226.846 142.587 226.398C142.288 225.947 142.139 225.401 142.139 224.762C142.139 224.2 142.25 223.744 142.472 223.394C142.693 223.04 142.989 222.763 143.36 222.563C143.731 222.363 144.14 222.214 144.587 222.116C145.039 222.013 145.493 221.933 145.949 221.873C146.545 221.796 147.029 221.739 147.4 221.7C147.775 221.658 148.048 221.587 148.218 221.489C148.393 221.391 148.48 221.221 148.48 220.978V220.927C148.48 220.296 148.307 219.806 147.962 219.457C147.621 219.107 147.104 218.933 146.409 218.933C145.689 218.933 145.124 219.09 144.715 219.406C144.306 219.721 144.018 220.058 143.852 220.415L142.42 219.904C142.676 219.308 143.017 218.843 143.443 218.511C143.874 218.174 144.342 217.94 144.849 217.808C145.361 217.671 145.864 217.603 146.358 217.603C146.673 217.603 147.035 217.641 147.445 217.718C147.858 217.79 148.256 217.942 148.64 218.172C149.028 218.402 149.349 218.749 149.605 219.214C149.861 219.678 149.989 220.3 149.989 221.08V227.549H148.48V226.219H148.403C148.301 226.433 148.131 226.661 147.892 226.903C147.653 227.146 147.336 227.353 146.94 227.523C146.543 227.694 146.06 227.779 145.489 227.779ZM145.719 226.424C146.315 226.424 146.818 226.307 147.227 226.072C147.641 225.838 147.952 225.536 148.16 225.165C148.374 224.794 148.48 224.404 148.48 223.995V222.614C148.416 222.691 148.275 222.761 148.058 222.825C147.845 222.885 147.598 222.938 147.317 222.985C147.04 223.028 146.769 223.066 146.505 223.1C146.245 223.13 146.034 223.156 145.872 223.177C145.48 223.228 145.114 223.311 144.773 223.426C144.436 223.537 144.163 223.705 143.954 223.931C143.75 224.153 143.648 224.455 143.648 224.839C143.648 225.363 143.842 225.759 144.229 226.028C144.621 226.292 145.118 226.424 145.719 226.424ZM154.25 221.643V227.549H152.742V214.458H154.25V219.265H154.378C154.608 218.758 154.954 218.355 155.414 218.057C155.878 217.754 156.496 217.603 157.267 217.603C157.937 217.603 158.522 217.737 159.025 218.006C159.528 218.27 159.918 218.677 160.195 219.227C160.476 219.772 160.617 220.467 160.617 221.31V227.549H159.108V221.413C159.108 220.633 158.906 220.03 158.501 219.604C158.101 219.173 157.544 218.958 156.833 218.958C156.339 218.958 155.895 219.062 155.503 219.271C155.116 219.48 154.809 219.785 154.583 220.185C154.361 220.586 154.25 221.072 154.25 221.643ZM166.266 227.779C165.644 227.779 165.079 227.662 164.572 227.428C164.065 227.189 163.662 226.846 163.364 226.398C163.066 225.947 162.916 225.401 162.916 224.762C162.916 224.2 163.027 223.744 163.249 223.394C163.47 223.04 163.767 222.763 164.137 222.563C164.508 222.363 164.917 222.214 165.365 222.116C165.816 222.013 166.27 221.933 166.726 221.873C167.323 221.796 167.806 221.739 168.177 221.7C168.552 221.658 168.825 221.587 168.995 221.489C169.17 221.391 169.257 221.221 169.257 220.978V220.927C169.257 220.296 169.085 219.806 168.74 219.457C168.399 219.107 167.881 218.933 167.186 218.933C166.466 218.933 165.902 219.09 165.492 219.406C165.083 219.721 164.796 220.058 164.63 220.415L163.198 219.904C163.453 219.308 163.794 218.843 164.22 218.511C164.651 218.174 165.12 217.94 165.627 217.808C166.138 217.671 166.641 217.603 167.135 217.603C167.451 217.603 167.813 217.641 168.222 217.718C168.635 217.79 169.034 217.942 169.417 218.172C169.805 218.402 170.127 218.749 170.382 219.214C170.638 219.678 170.766 220.3 170.766 221.08V227.549H169.257V226.219H169.181C169.078 226.433 168.908 226.661 168.669 226.903C168.431 227.146 168.113 227.353 167.717 227.523C167.321 227.694 166.837 227.779 166.266 227.779ZM166.496 226.424C167.093 226.424 167.595 226.307 168.005 226.072C168.418 225.838 168.729 225.536 168.938 225.165C169.151 224.794 169.257 224.404 169.257 223.995V222.614C169.193 222.691 169.053 222.761 168.836 222.825C168.622 222.885 168.375 222.938 168.094 222.985C167.817 223.028 167.546 223.066 167.282 223.1C167.022 223.13 166.811 223.156 166.649 223.177C166.257 223.228 165.891 223.311 165.55 223.426C165.213 223.537 164.941 223.705 164.732 223.931C164.527 224.153 164.425 224.455 164.425 224.839C164.425 225.363 164.619 225.759 165.007 226.028C165.399 226.292 165.895 226.424 166.496 226.424ZM173.519 227.549V217.731H174.977V219.214H175.079C175.258 218.728 175.582 218.334 176.051 218.031C176.519 217.729 177.048 217.577 177.636 217.577C177.747 217.577 177.885 217.58 178.051 217.584C178.217 217.588 178.343 217.594 178.428 217.603V219.137C178.377 219.124 178.26 219.105 178.077 219.08C177.898 219.05 177.708 219.035 177.508 219.035C177.031 219.035 176.605 219.135 176.23 219.335C175.859 219.531 175.565 219.804 175.347 220.153C175.134 220.499 175.028 220.893 175.028 221.336V227.549H173.519ZM183.106 227.779C182.484 227.779 181.919 227.662 181.412 227.428C180.905 227.189 180.502 226.846 180.204 226.398C179.905 225.947 179.756 225.401 179.756 224.762C179.756 224.2 179.867 223.744 180.089 223.394C180.31 223.04 180.606 222.763 180.977 222.563C181.348 222.363 181.757 222.214 182.204 222.116C182.656 222.013 183.11 221.933 183.566 221.873C184.163 221.796 184.646 221.739 185.017 221.7C185.392 221.658 185.665 221.587 185.835 221.489C186.01 221.391 186.097 221.221 186.097 220.978V220.927C186.097 220.296 185.925 219.806 185.579 219.457C185.239 219.107 184.721 218.933 184.026 218.933C183.306 218.933 182.741 219.09 182.332 219.406C181.923 219.721 181.636 220.058 181.469 220.415L180.038 219.904C180.293 219.308 180.634 218.843 181.06 218.511C181.491 218.174 181.959 217.94 182.467 217.808C182.978 217.671 183.481 217.603 183.975 217.603C184.29 217.603 184.653 217.641 185.062 217.718C185.475 217.79 185.874 217.942 186.257 218.172C186.645 218.402 186.967 218.749 187.222 219.214C187.478 219.678 187.606 220.3 187.606 221.08V227.549H186.097V226.219H186.021C185.918 226.433 185.748 226.661 185.509 226.903C185.271 227.146 184.953 227.353 184.557 227.523C184.16 227.694 183.677 227.779 183.106 227.779ZM183.336 226.424C183.932 226.424 184.435 226.307 184.844 226.072C185.258 225.838 185.569 225.536 185.778 225.165C185.991 224.794 186.097 224.404 186.097 223.995V222.614C186.033 222.691 185.893 222.761 185.675 222.825C185.462 222.885 185.215 222.938 184.934 222.985C184.657 223.028 184.386 223.066 184.122 223.1C183.862 223.13 183.651 223.156 183.489 223.177C183.097 223.228 182.731 223.311 182.39 223.426C182.053 223.537 181.78 223.705 181.572 223.931C181.367 224.153 181.265 224.455 181.265 224.839C181.265 225.363 181.459 225.759 181.847 226.028C182.239 226.292 182.735 226.424 183.336 226.424ZM197.314 219.93L195.959 220.313C195.873 220.087 195.748 219.868 195.581 219.655C195.419 219.437 195.198 219.259 194.917 219.118C194.635 218.977 194.275 218.907 193.836 218.907C193.236 218.907 192.735 219.045 192.334 219.322C191.938 219.595 191.74 219.942 191.74 220.364C191.74 220.739 191.876 221.036 192.149 221.253C192.422 221.47 192.848 221.651 193.427 221.796L194.885 222.154C195.763 222.367 196.417 222.693 196.847 223.132C197.277 223.567 197.493 224.127 197.493 224.813C197.493 225.376 197.331 225.879 197.007 226.322C196.687 226.765 196.24 227.114 195.665 227.37C195.089 227.626 194.42 227.754 193.657 227.754C192.656 227.754 191.827 227.536 191.171 227.102C190.515 226.667 190.099 226.032 189.924 225.197L191.356 224.839C191.493 225.367 191.75 225.763 192.13 226.028C192.513 226.292 193.014 226.424 193.632 226.424C194.335 226.424 194.893 226.275 195.307 225.977C195.724 225.674 195.933 225.312 195.933 224.89C195.933 224.549 195.814 224.263 195.575 224.033C195.336 223.799 194.97 223.624 194.476 223.509L192.839 223.126C191.94 222.913 191.28 222.582 190.858 222.135C190.44 221.683 190.231 221.119 190.231 220.441C190.231 219.887 190.387 219.397 190.698 218.971C191.013 218.545 191.442 218.21 191.983 217.967C192.528 217.724 193.146 217.603 193.836 217.603C194.808 217.603 195.571 217.816 196.125 218.242C196.683 218.668 197.079 219.231 197.314 219.93ZM201.272 221.643V227.549H199.763V214.458H201.272V219.265H201.4C201.63 218.758 201.975 218.355 202.435 218.057C202.9 217.754 203.518 217.603 204.289 217.603C204.958 217.603 205.544 217.737 206.047 218.006C206.55 218.27 206.94 218.677 207.217 219.227C207.498 219.772 207.638 220.467 207.638 221.31V227.549H206.13V221.413C206.13 220.633 205.927 220.03 205.523 219.604C205.122 219.173 204.566 218.958 203.854 218.958C203.36 218.958 202.917 219.062 202.525 219.271C202.137 219.48 201.83 219.785 201.604 220.185C201.383 220.586 201.272 221.072 201.272 221.643ZM214.668 217.731V219.009H209.58V217.731H214.668ZM211.063 215.379H212.571V224.737C212.571 225.163 212.633 225.482 212.757 225.695C212.885 225.904 213.047 226.045 213.243 226.117C213.443 226.185 213.654 226.219 213.875 226.219C214.042 226.219 214.178 226.211 214.285 226.194C214.391 226.173 214.476 226.156 214.54 226.143L214.847 227.498C214.745 227.536 214.602 227.575 214.419 227.613C214.236 227.656 214.003 227.677 213.722 227.677C213.296 227.677 212.878 227.585 212.469 227.402C212.064 227.219 211.728 226.94 211.459 226.565C211.195 226.19 211.063 225.717 211.063 225.146V215.379ZM216.937 227.549V217.731H218.395V219.214H218.497C218.676 218.728 219 218.334 219.468 218.031C219.937 217.729 220.466 217.577 221.054 217.577C221.165 217.577 221.303 217.58 221.469 217.584C221.635 217.588 221.761 217.594 221.846 217.603V219.137C221.795 219.124 221.678 219.105 221.495 219.08C221.316 219.05 221.126 219.035 220.926 219.035C220.449 219.035 220.022 219.135 219.647 219.335C219.277 219.531 218.983 219.804 218.765 220.153C218.552 220.499 218.446 220.893 218.446 221.336V227.549H216.937ZM226.524 227.779C225.902 227.779 225.337 227.662 224.83 227.428C224.323 227.189 223.92 226.846 223.622 226.398C223.323 225.947 223.174 225.401 223.174 224.762C223.174 224.2 223.285 223.744 223.507 223.394C223.728 223.04 224.024 222.763 224.395 222.563C224.766 222.363 225.175 222.214 225.622 222.116C226.074 222.013 226.528 221.933 226.984 221.873C227.581 221.796 228.064 221.739 228.435 221.7C228.81 221.658 229.083 221.587 229.253 221.489C229.428 221.391 229.515 221.221 229.515 220.978V220.927C229.515 220.296 229.343 219.806 228.997 219.457C228.657 219.107 228.139 218.933 227.444 218.933C226.724 218.933 226.159 219.09 225.75 219.406C225.341 219.721 225.054 220.058 224.887 220.415L223.456 219.904C223.711 219.308 224.052 218.843 224.478 218.511C224.909 218.174 225.377 217.94 225.885 217.808C226.396 217.671 226.899 217.603 227.393 217.603C227.708 217.603 228.071 217.641 228.48 217.718C228.893 217.79 229.291 217.942 229.675 218.172C230.063 218.402 230.385 218.749 230.64 219.214C230.896 219.678 231.024 220.3 231.024 221.08V227.549H229.515V226.219H229.438C229.336 226.433 229.166 226.661 228.927 226.903C228.688 227.146 228.371 227.353 227.975 227.523C227.578 227.694 227.095 227.779 226.524 227.779ZM226.754 226.424C227.35 226.424 227.853 226.307 228.262 226.072C228.676 225.838 228.987 225.536 229.196 225.165C229.409 224.794 229.515 224.404 229.515 223.995V222.614C229.451 222.691 229.311 222.761 229.093 222.825C228.88 222.885 228.633 222.938 228.352 222.985C228.075 223.028 227.804 223.066 227.54 223.1C227.28 223.13 227.069 223.156 226.907 223.177C226.515 223.228 226.149 223.311 225.808 223.426C225.471 223.537 225.198 223.705 224.99 223.931C224.785 224.153 224.683 224.455 224.683 224.839C224.683 225.363 224.877 225.759 225.264 226.028C225.657 226.292 226.153 226.424 226.754 226.424Z" fill="#333333"/>
<path d="M23.0597 270.549V269.654L28.5483 261.461H23V260.367H30.0199V261.262L24.5313 269.455H30.0796V270.549H23.0597ZM33.3807 260.367V270.549H32.1478V260.367H33.3807ZM35.8528 270.549V260.367H39.2932C40.0919 260.367 40.7449 260.511 41.252 260.8C41.7624 261.085 42.1402 261.471 42.3855 261.958C42.6308 262.445 42.7534 262.989 42.7534 263.589C42.7534 264.189 42.6308 264.734 42.3855 265.224C42.1436 265.715 41.769 266.106 41.2619 266.398C40.7548 266.686 40.1052 266.83 39.3131 266.83H36.8472V265.737H39.2733C39.8202 265.737 40.2593 265.642 40.5908 265.453C40.9222 265.264 41.1625 265.009 41.3116 264.687C41.4641 264.363 41.5403 263.996 41.5403 263.589C41.5403 263.181 41.4641 262.817 41.3116 262.495C41.1625 262.174 40.9205 261.922 40.5858 261.739C40.251 261.554 39.8069 261.461 39.2534 261.461H37.0858V270.549H35.8528ZM56.8702 263.549H55.6373C55.5644 263.194 55.4368 262.883 55.2545 262.614C55.0755 262.346 54.8567 262.12 54.5982 261.938C54.343 261.753 54.0596 261.613 53.7481 261.521C53.4365 261.428 53.1117 261.381 52.7736 261.381C52.1572 261.381 51.5987 261.537 51.0982 261.849C50.6011 262.16 50.205 262.619 49.91 263.226C49.6183 263.832 49.4725 264.576 49.4725 265.458C49.4725 266.34 49.6183 267.084 49.91 267.69C50.205 268.297 50.6011 268.756 51.0982 269.067C51.5987 269.379 52.1572 269.535 52.7736 269.535C53.1117 269.535 53.4365 269.488 53.7481 269.396C54.0596 269.303 54.343 269.165 54.5982 268.983C54.8567 268.797 55.0755 268.57 55.2545 268.302C55.4368 268.03 55.5644 267.719 55.6373 267.367H56.8702C56.7774 267.888 56.6084 268.353 56.3631 268.764C56.1179 269.175 55.8129 269.525 55.4484 269.813C55.0838 270.098 54.6744 270.315 54.2204 270.464C53.7696 270.614 53.2874 270.688 52.7736 270.688C51.9053 270.688 51.133 270.476 50.4569 270.052C49.7807 269.628 49.2488 269.024 48.861 268.242C48.4732 267.46 48.2793 266.532 48.2793 265.458C48.2793 264.384 48.4732 263.456 48.861 262.674C49.2488 261.892 49.7807 261.289 50.4569 260.864C51.133 260.44 51.9053 260.228 52.7736 260.228C53.2874 260.228 53.7696 260.303 54.2204 260.452C54.6744 260.601 55.0838 260.82 55.4484 261.108C55.8129 261.393 56.1179 261.741 56.3631 262.152C56.6084 262.56 56.7774 263.025 56.8702 263.549ZM67.4535 265.458C67.4535 266.532 67.2596 267.46 66.8718 268.242C66.484 269.024 65.9521 269.628 65.276 270.052C64.5998 270.476 63.8276 270.688 62.9592 270.688C62.0908 270.688 61.3186 270.476 60.6424 270.052C59.9663 269.628 59.4343 269.024 59.0465 268.242C58.6588 267.46 58.4649 266.532 58.4649 265.458C58.4649 264.384 58.6588 263.456 59.0465 262.674C59.4343 261.892 59.9663 261.289 60.6424 260.864C61.3186 260.44 62.0908 260.228 62.9592 260.228C63.8276 260.228 64.5998 260.44 65.276 260.864C65.9521 261.289 66.484 261.892 66.8718 262.674C67.2596 263.456 67.4535 264.384 67.4535 265.458ZM66.2603 265.458C66.2603 264.576 66.1128 263.832 65.8179 263.226C65.5262 262.619 65.1301 262.16 64.6296 261.849C64.1325 261.537 63.5757 261.381 62.9592 261.381C62.3427 261.381 61.7842 261.537 61.2838 261.849C60.7866 262.16 60.3905 262.619 60.0956 263.226C59.8039 263.832 59.6581 264.576 59.6581 265.458C59.6581 266.34 59.8039 267.084 60.0956 267.69C60.3905 268.297 60.7866 268.756 61.2838 269.067C61.7842 269.379 62.3427 269.535 62.9592 269.535C63.5757 269.535 64.1325 269.379 64.6296 269.067C65.1301 268.756 65.5262 268.297 65.8179 267.69C66.1128 267.084 66.2603 266.34 66.2603 265.458ZM72.6687 270.549H69.5267V260.367H72.8079C73.7956 260.367 74.6408 260.571 75.3434 260.979C76.0461 261.383 76.5847 261.965 76.9592 262.724C77.3337 263.479 77.521 264.384 77.521 265.438C77.521 266.499 77.3321 267.412 76.9542 268.178C76.5764 268.94 76.0262 269.527 75.3036 269.937C74.5811 270.345 73.7028 270.549 72.6687 270.549ZM70.7596 269.455H72.5892C73.431 269.455 74.1287 269.293 74.6822 268.968C75.2357 268.643 75.6483 268.181 75.9201 267.581C76.1919 266.981 76.3278 266.267 76.3278 265.438C76.3278 264.616 76.1936 263.909 75.9251 263.315C75.6566 262.719 75.2556 262.261 74.722 261.943C74.1884 261.622 73.5238 261.461 72.7284 261.461H70.7596V269.455ZM79.5892 270.549V260.367H85.734V261.461H80.8221V264.901H85.4159V265.995H80.8221V269.455H85.8136V270.549H79.5892Z" fill="#333333"/>
<path d="M126.213 269.319V268.015L131.966 258.913H132.912V260.933H132.273L127.926 267.811V267.913H135.674V269.319H126.213ZM132.375 272.004V268.923V268.316V258.913H133.884V272.004H132.375ZM142.339 272.183C141.376 272.183 140.555 271.921 139.878 271.397C139.2 270.868 138.683 270.103 138.325 269.102C137.967 268.096 137.788 266.882 137.788 265.459C137.788 264.044 137.967 262.836 138.325 261.834C138.687 260.829 139.207 260.062 139.884 259.533C140.566 259 141.384 258.734 142.339 258.734C143.293 258.734 144.109 259 144.787 259.533C145.469 260.062 145.989 260.829 146.347 261.834C146.709 262.836 146.89 264.044 146.89 265.459C146.89 266.882 146.711 268.096 146.353 269.102C145.995 270.103 145.477 270.868 144.8 271.397C144.122 271.921 143.302 272.183 142.339 272.183ZM142.339 270.777C143.293 270.777 144.035 270.316 144.563 269.396C145.092 268.476 145.356 267.163 145.356 265.459C145.356 264.325 145.234 263.36 144.992 262.563C144.753 261.766 144.408 261.159 143.956 260.741C143.509 260.324 142.97 260.115 142.339 260.115C141.393 260.115 140.653 260.581 140.121 261.515C139.588 262.444 139.322 263.758 139.322 265.459C139.322 266.592 139.441 267.555 139.68 268.348C139.918 269.14 140.261 269.743 140.709 270.157C141.161 270.57 141.704 270.777 142.339 270.777ZM153.589 272.183C152.626 272.183 151.805 271.921 151.128 271.397C150.45 270.868 149.933 270.103 149.575 269.102C149.217 268.096 149.038 266.882 149.038 265.459C149.038 264.044 149.217 262.836 149.575 261.834C149.937 260.829 150.457 260.062 151.134 259.533C151.816 259 152.634 258.734 153.589 258.734C154.543 258.734 155.359 259 156.037 259.533C156.719 260.062 157.239 260.829 157.597 261.834C157.959 262.836 158.14 264.044 158.14 265.459C158.14 266.882 157.961 268.096 157.603 269.102C157.245 270.103 156.727 270.868 156.05 271.397C155.372 271.921 154.552 272.183 153.589 272.183ZM153.589 270.777C154.543 270.777 155.285 270.316 155.813 269.396C156.342 268.476 156.606 267.163 156.606 265.459C156.606 264.325 156.484 263.36 156.242 262.563C156.003 261.766 155.658 261.159 155.206 260.741C154.759 260.324 154.22 260.115 153.589 260.115C152.643 260.115 151.903 260.581 151.371 261.515C150.838 262.444 150.572 263.758 150.572 265.459C150.572 266.592 150.691 267.555 150.93 268.348C151.168 269.14 151.511 269.743 151.959 270.157C152.411 270.57 152.954 270.777 153.589 270.777ZM164.839 272.183C163.876 272.183 163.055 271.921 162.378 271.397C161.7 270.868 161.183 270.103 160.825 269.102C160.467 268.096 160.288 266.882 160.288 265.459C160.288 264.044 160.467 262.836 160.825 261.834C161.187 260.829 161.707 260.062 162.384 259.533C163.066 259 163.884 258.734 164.839 258.734C165.793 258.734 166.609 259 167.287 259.533C167.969 260.062 168.489 260.829 168.847 261.834C169.209 262.836 169.39 264.044 169.39 265.459C169.39 266.882 169.211 268.096 168.853 269.102C168.495 270.103 167.977 270.868 167.3 271.397C166.622 271.921 165.802 272.183 164.839 272.183ZM164.839 270.777C165.793 270.777 166.535 270.316 167.063 269.396C167.592 268.476 167.856 267.163 167.856 265.459C167.856 264.325 167.734 263.36 167.492 262.563C167.253 261.766 166.908 261.159 166.456 260.741C166.009 260.324 165.47 260.115 164.839 260.115C163.893 260.115 163.153 260.581 162.621 261.515C162.088 262.444 161.822 263.758 161.822 265.459C161.822 266.592 161.941 267.555 162.18 268.348C162.418 269.14 162.761 269.743 163.209 270.157C163.661 270.57 164.204 270.777 164.839 270.777ZM175.987 258.734C176.523 258.738 177.06 258.841 177.597 259.041C178.134 259.241 178.624 259.574 179.068 260.038C179.511 260.498 179.867 261.127 180.135 261.924C180.403 262.721 180.538 263.72 180.538 264.922C180.538 266.085 180.427 267.118 180.205 268.022C179.988 268.921 179.673 269.679 179.259 270.297C178.85 270.915 178.352 271.384 177.764 271.704C177.18 272.023 176.519 272.183 175.782 272.183C175.049 272.183 174.395 272.038 173.82 271.748C173.249 271.454 172.78 271.047 172.413 270.527C172.051 270.003 171.819 269.396 171.717 268.706H173.276C173.417 269.307 173.696 269.803 174.114 270.195C174.536 270.583 175.092 270.777 175.782 270.777C176.792 270.777 177.589 270.336 178.173 269.454C178.761 268.571 179.055 267.325 179.055 265.714H178.952C178.714 266.072 178.43 266.381 178.102 266.641C177.774 266.901 177.41 267.101 177.009 267.242C176.609 267.383 176.183 267.453 175.731 267.453C174.981 267.453 174.293 267.267 173.666 266.897C173.044 266.522 172.546 266.008 172.171 265.356C171.8 264.7 171.614 263.95 171.614 263.106C171.614 262.305 171.793 261.572 172.151 260.907C172.514 260.238 173.021 259.706 173.673 259.309C174.329 258.913 175.1 258.721 175.987 258.734ZM175.987 260.14C175.45 260.14 174.966 260.275 174.536 260.543C174.109 260.807 173.771 261.165 173.519 261.617C173.272 262.064 173.148 262.561 173.148 263.106C173.148 263.652 173.268 264.148 173.506 264.596C173.749 265.039 174.08 265.392 174.497 265.657C174.919 265.917 175.398 266.047 175.935 266.047C176.34 266.047 176.717 265.968 177.067 265.81C177.416 265.648 177.721 265.429 177.981 265.152C178.245 264.87 178.452 264.553 178.601 264.199C178.75 263.841 178.825 263.468 178.825 263.081C178.825 262.569 178.701 262.09 178.454 261.642C178.211 261.195 177.874 260.833 177.444 260.556C177.018 260.279 176.532 260.14 175.987 260.14ZM187.475 272.183C186.631 272.183 185.879 272.038 185.218 271.748C184.562 271.459 184.04 271.056 183.652 270.54C183.269 270.02 183.06 269.417 183.026 268.731H184.637C184.671 269.153 184.816 269.517 185.071 269.824C185.327 270.127 185.661 270.361 186.075 270.527C186.488 270.694 186.946 270.777 187.449 270.777C188.012 270.777 188.51 270.679 188.945 270.483C189.379 270.287 189.72 270.014 189.968 269.665C190.215 269.315 190.338 268.91 190.338 268.45C190.338 267.968 190.219 267.544 189.98 267.178C189.742 266.807 189.392 266.517 188.932 266.309C188.472 266.1 187.909 265.995 187.245 265.995H186.196V264.589H187.245C187.764 264.589 188.22 264.495 188.612 264.308C189.009 264.12 189.318 263.856 189.539 263.515C189.765 263.174 189.878 262.774 189.878 262.314C189.878 261.87 189.78 261.485 189.584 261.157C189.388 260.829 189.111 260.573 188.753 260.39C188.399 260.206 187.982 260.115 187.5 260.115C187.049 260.115 186.622 260.198 186.222 260.364C185.826 260.526 185.502 260.763 185.25 261.074C184.999 261.38 184.862 261.751 184.841 262.186H183.307C183.333 261.5 183.539 260.899 183.927 260.383C184.315 259.863 184.822 259.459 185.448 259.169C186.079 258.879 186.772 258.734 187.526 258.734C188.335 258.734 189.03 258.898 189.61 259.226C190.189 259.55 190.634 259.978 190.946 260.511C191.257 261.044 191.412 261.619 191.412 262.237C191.412 262.974 191.218 263.603 190.83 264.123C190.447 264.642 189.925 265.003 189.264 265.203V265.305C190.091 265.441 190.737 265.793 191.201 266.36C191.666 266.922 191.898 267.619 191.898 268.45C191.898 269.162 191.704 269.801 191.316 270.368C190.933 270.93 190.409 271.373 189.744 271.697C189.079 272.021 188.323 272.183 187.475 272.183Z" fill="#333333"/>
</g>
<defs>
<linearGradient id="paint0_linear_257_2015" x1="252.746" y1="115.143" x2="252.746" y2="306.546" gradientUnits="userSpaceOnUse">
<stop stop-color="white"/>
<stop offset="1" stop-color="#E6E6E6"/>
</linearGradient>
<clipPath id="clip0_257_2015">
<rect width="505" height="312" fill="white"/>
</clipPath>
</defs>
</svg>
