<!-- Icon -->
<svg xmlns="http://www.w3.org/2000/svg" width="95" height="95">
  <g transform="translate(12.976 13.366)">
    <path d="M 2.339 0 L 66.761 0 C 67.415 0 68 0.265 68.431 0.696 L 68.417 0.696 C 68.835 1.114 69.114 1.699 69.114 2.339 L 69.114 52.016 C 69.114 53.308 68.066 54.355 66.775 54.355 L 51.139 54.355 L 53.979 51.473 L 66.218 51.473 L 66.218 2.882 L 2.868 2.882 L 2.868 51.473 L 36.993 51.473 L 34.153 54.355 L 2.339 54.355 C 1.047 54.355 -0 53.308 0 52.016 L 0 2.339 C 0 1.047 1.047 0 2.339 0 Z" fill="rgb(33,33,33)"></path>
    <path d="M 6.335 43.412 C 5.857 44.006 5.904 44.865 6.445 45.403 C 6.987 45.941 7.846 45.983 8.437 45.5 L 26.119 27.846 L 39.458 41.184 C 40.051 41.638 40.888 41.583 41.416 41.054 C 41.945 40.526 42 39.689 41.546 39.096 L 27.178 24.699 C 26.596 24.121 25.657 24.121 25.075 24.699 L 6.335 43.398 Z" fill="rgb(33,33,33)"></path>
    <path d="M 32.97 32.608 C 32.389 33.192 32.392 34.136 32.977 34.717 C 33.561 35.297 34.505 35.294 35.086 34.71 L 47.31 22.486 L 60.648 35.838 C 61.239 36.356 62.129 36.327 62.684 35.771 C 63.24 35.216 63.269 34.325 62.751 33.735 L 48.368 19.339 C 48.089 19.057 47.708 18.898 47.31 18.898 C 46.913 18.898 46.532 19.057 46.252 19.339 L 32.983 32.608 Z M 17.473 8.409 C 20.417 8.386 23.081 10.151 24.207 12.872 C 25.332 15.592 24.696 18.723 22.597 20.787 C 20.533 22.886 17.402 23.522 14.681 22.397 C 11.961 21.271 10.196 18.607 10.219 15.663 C 10.216 13.742 10.977 11.898 12.336 10.54 C 13.694 9.181 15.538 8.42 17.459 8.423 Z M 20.495 12.642 C 19.277 11.406 17.432 11.032 15.829 11.695 C 14.226 12.359 13.186 13.929 13.199 15.663 C 13.186 17.398 14.226 18.967 15.829 19.631 C 17.432 20.295 19.277 19.921 20.495 18.685 C 21.299 17.885 21.751 16.798 21.751 15.663 C 21.751 14.529 21.299 13.442 20.495 12.642 Z M 35.49 56.569 L 40.558 61.553 L 38.483 63.67 L 33.415 58.671 Z M 52.322 39.458 L 57.404 44.456 L 55.316 46.558 L 50.262 41.574 Z" fill="rgb(33,33,33)"></path>
    <path d="M 40.14 63.906 L 30.867 68.32 L 28.932 66.426 L 33.137 57.042 L 33.429 56.625 L 53.478 36.255 C 53.963 35.756 54.582 35.408 55.26 35.253 C 56.045 35.059 56.875 35.28 57.46 35.838 L 60.941 39.263 C 61.514 39.84 61.75 40.67 61.567 41.463 C 61.425 42.148 61.086 42.777 60.593 43.273 L 40.544 63.614 L 40.126 63.906 Z M 33.151 64.046 L 38.678 61.414 L 58.532 41.254 C 58.585 41.199 58.632 41.138 58.671 41.073 L 55.692 38.135 C 55.626 38.174 55.566 38.221 55.511 38.274 L 35.657 58.463 L 33.151 64.06 Z" fill="rgb(33,33,33)"></path>
  </g>
  <path d="M 0 0 L 95.052 0 L 95.052 95.052 L 0 95.052 Z" fill="transparent"></path>
</svg>