<svg width="26" height="26" viewBox="0 0 26 26" fill="none" xmlns="http://www.w3.org/2000/svg">
<g clip-path="url(#clip0_181_2)">
<path d="M12.9995 0.5C6.09683 0.5 0.5 6.09683 0.5 12.9995C0.5 19.9021 6.09683 25.5 12.9995 25.5C19.9021 25.5 25.5 19.9021 25.5 12.9995C25.5 6.09683 19.9021 0.5 12.9995 0.5ZM15.6016 19.8725C14.9582 20.1265 14.446 20.319 14.0619 20.4524C13.631 20.5931 13.1796 20.6607 12.7265 20.6524C11.9476 20.6524 11.3413 20.4619 10.9095 20.082C10.4778 19.7021 10.263 19.2206 10.263 18.6354C10.263 18.4079 10.2788 18.1751 10.3106 17.9381C10.3498 17.6681 10.4017 17.4001 10.4661 17.1349L11.2714 14.2905C11.3423 14.0175 11.4037 13.7582 11.4524 13.5169C11.5011 13.2735 11.5243 13.0503 11.5243 12.8471C11.5243 12.4852 11.4492 12.2312 11.3 12.0884C11.1487 11.9455 10.864 11.8757 10.4397 11.8757C10.2323 11.8757 10.0185 11.9063 9.79947 11.9709C9.58254 12.0376 9.39418 12.0979 9.23968 12.1571L9.45238 11.281C9.97936 11.0661 10.4841 10.882 10.9656 10.7296C11.4059 10.5823 11.8664 10.5045 12.3307 10.4989C13.1042 10.4989 13.7011 10.6873 14.1212 11.0598C14.5392 11.4333 14.7497 11.919 14.7497 12.5159C14.7497 12.6397 14.7349 12.8577 14.7063 13.1688C14.6815 13.4595 14.6276 13.747 14.5455 14.027L13.7444 16.863C13.6726 17.1195 13.6137 17.3794 13.5677 17.6418C13.5241 17.8602 13.4983 18.0817 13.4905 18.3042C13.4905 18.681 13.5741 18.9381 13.7434 19.0746C13.9106 19.2111 14.2037 19.2799 14.6185 19.2799C14.8143 19.2799 15.0333 19.245 15.281 19.1772C15.5265 19.1095 15.7042 19.0492 15.8164 18.9974L15.6016 19.8725ZM15.4598 8.36137C15.0955 8.70485 14.6111 8.89178 14.1106 8.88201C13.5857 8.88201 13.1328 8.70846 12.7561 8.36137C12.5769 8.20379 12.4338 8.00947 12.3365 7.79162C12.2392 7.57378 12.1899 7.33753 12.1921 7.09894C12.1921 6.60688 12.3825 6.1836 12.7561 5.83333C13.1211 5.48712 13.6076 5.29823 14.1106 5.30741C14.6365 5.30741 15.0873 5.48201 15.4598 5.83333C15.8333 6.1836 16.0206 6.60688 16.0206 7.09894C16.0206 7.59312 15.8333 8.01428 15.4598 8.36137Z" fill="#030104"/>
</g>
<defs>
<clipPath id="clip0_181_2">
<rect width="25" height="25" fill="white" transform="translate(0.5 0.5)"/>
</clipPath>
</defs>
</svg>
