<svg width="80" height="80" viewBox="0 0 80 80" fill="none" xmlns="http://www.w3.org/2000/svg">
<g clip-path="url(#clip0_268_1169)">
<path opacity="0.5" d="M40 80C62.0914 80 80 62.0914 80 40C80 17.9086 62.0914 0 40 0C17.9086 0 0 17.9086 0 40C0 62.0914 17.9086 80 40 80Z" fill="#D4EDDA"/>
<path d="M40 70C56.5685 70 70 56.5685 70 40C70 23.4315 56.5685 10 40 10C23.4315 10 10 23.4315 10 40C10 56.5685 23.4315 70 40 70Z" fill="#D4EDDA"/>
<path d="M50.2084 25.3229H29.7917C28.3419 25.3249 26.9521 25.9017 25.9269 26.9268C24.9017 27.952 24.3249 29.3419 24.323 30.7917V45.375C24.3249 46.8248 24.9017 48.2147 25.9269 49.2399C26.9521 50.2651 28.3419 50.8418 29.7917 50.8438H31.0197C32.5582 54.2767 36.0013 56.6771 40.0001 56.6771C43.9988 56.6771 47.442 54.2767 48.9805 50.8438H50.2084C51.6582 50.8418 53.0481 50.2651 54.0733 49.2399C55.0984 48.2147 55.6752 46.8248 55.6772 45.375V30.7917C55.6752 29.3419 55.0984 27.952 54.0733 26.9268C53.0481 25.9017 51.6582 25.3249 50.2084 25.3229ZM29.7917 27.5104H50.2084C52.0168 27.5104 53.4897 28.9834 53.4897 30.7917V31.1563H26.5105V30.7917C26.5105 28.9834 27.9834 27.5104 29.7917 27.5104ZM40.0001 54.4896C35.7797 54.4896 32.3438 51.0538 32.3438 46.8334C32.3438 42.6129 35.7797 39.1771 40.0001 39.1771C44.2205 39.1771 47.6563 42.6129 47.6563 46.8334C47.6563 51.0538 44.2205 54.4896 40.0001 54.4896ZM50.2084 48.6563H49.6688C49.7838 48.0554 49.8424 47.4451 49.8438 46.8334C49.8438 41.4054 45.428 36.9896 40.0001 36.9896C34.5722 36.9896 30.1563 41.4054 30.1563 46.8334C30.1563 47.4561 30.2205 48.0642 30.3313 48.6563H29.7917C27.9834 48.6563 26.5105 47.1834 26.5105 45.375V33.3438H53.4897V45.375C53.4897 47.1834 52.0168 48.6563 50.2084 48.6563ZM43.6897 44.2375C43.8945 44.4426 44.0095 44.7206 44.0095 45.0104C44.0095 45.3003 43.8945 45.5783 43.6897 45.7834L40.0438 49.4292C39.9426 49.5311 39.8222 49.612 39.6895 49.6672C39.5569 49.7225 39.4146 49.7509 39.2709 49.7509C39.1272 49.7509 38.985 49.7225 38.8523 49.6672C38.7197 49.612 38.5993 49.5311 38.498 49.4292L36.3105 47.2417C36.203 47.1416 36.1168 47.0208 36.0571 46.8866C35.9973 46.7525 35.9651 46.6076 35.9626 46.4608C35.96 46.3139 35.987 46.1681 36.042 46.0319C36.097 45.8957 36.1789 45.772 36.2827 45.6681C36.3866 45.5642 36.5103 45.4824 36.6465 45.4273C36.7827 45.3723 36.9286 45.3453 37.0754 45.3479C37.2223 45.3505 37.3671 45.3826 37.5013 45.4424C37.6354 45.5022 37.7562 45.5884 37.8563 45.6959L39.2709 47.1104L42.1438 44.2375C42.3489 44.0327 42.6269 43.9177 42.9168 43.9177C43.2066 43.9177 43.4846 44.0327 43.6897 44.2375Z" fill="#599B01"/>
</g>
<defs>
<clipPath id="clip0_268_1169">
<rect width="80" height="80" fill="white"/>
</clipPath>
</defs>
</svg>
