<svg width="50" height="50" viewBox="0 0 50 50" fill="none" xmlns="http://www.w3.org/2000/svg">
<rect width="50" height="50" rx="4" fill="#242059" fill-opacity="0.05"/>
<path d="M33.125 32.5H16.875C15.8203 32.5 15 31.6797 15 30.625V19.375C15 18.3594 15.8203 17.5 16.875 17.5H33.125C34.1406 17.5 35 18.3594 35 19.375V30.625C35 31.6797 34.1406 32.5 33.125 32.5ZM19.375 19.6875C18.1641 19.6875 17.1875 20.7031 17.1875 21.875C17.1875 23.0859 18.1641 24.0625 19.375 24.0625C20.5469 24.0625 21.5625 23.0859 21.5625 21.875C21.5625 20.7031 20.5469 19.6875 19.375 19.6875ZM17.5 30H32.5V25.625L29.0625 22.2266C28.8672 22.0312 28.5938 22.0312 28.3984 22.2266L23.125 27.5L20.9375 25.3516C20.7422 25.1562 20.4688 25.1562 20.2734 25.3516L17.5 28.125V30Z" fill="white"/>
</svg>
