<svg width="624" height="262" viewBox="0 0 624 262" fill="none" xmlns="http://www.w3.org/2000/svg">
<path d="M136.341 178.723V151.456H66.2229V178.723L101.282 209.887L136.341 178.723Z" fill="#E6AF78"/>
<path d="M190.549 191.479L142.347 180.137C141.618 179.966 140.949 179.675 140.322 179.322L101.281 202.096L63.7621 178.221C62.7694 179.161 61.5461 179.822 60.2158 180.137L12.0131 191.479C4.97433 193.135 0 199.416 0 206.647V237.155C0 241.459 3.48803 244.946 7.79071 244.946H194.77C199.073 244.946 202.561 241.458 202.561 237.155V206.647C202.562 199.415 197.588 193.134 190.549 191.479Z" fill="#EFF2FA"/>
<path d="M66.2229 151.456V180.226C110.388 196.138 136.341 156.314 136.341 156.314V151.455H66.2229V151.456Z" fill="#D29B6E"/>
<path d="M50.6406 61.862L54.0351 136.542C54.1917 139.988 55.109 143.356 56.7212 146.405C58.3333 149.455 60.6004 152.109 63.3598 154.179L79.4663 166.259C83.5121 169.293 88.4328 170.933 93.49 170.934H109.072C114.129 170.934 119.05 169.293 123.095 166.259L139.202 154.179C141.961 152.109 144.228 149.455 145.841 146.405C147.453 143.356 148.37 139.988 148.527 136.542L151.921 61.862H50.6406Z" fill="#F0C087"/>
<path d="M89.595 77.4433C105.177 77.4433 128.549 73.548 134.093 61.8615H50.6406L54.0351 136.542C54.1917 139.987 55.1091 143.356 56.7214 146.405C58.3336 149.454 60.6008 152.109 63.3602 154.178L79.4668 166.258C83.5126 169.293 88.4333 170.933 93.4904 170.933H101.281C93.4904 170.933 77.9085 155.351 77.9085 135.875V89.1294C77.9085 85.234 81.8039 77.4433 89.595 77.4433Z" fill="#E6AF78"/>
<path d="M28.5988 219.665L3.35691 196.99C1.18246 199.739 0.000172389 203.142 0.00171048 206.647V237.155C0.00171048 241.458 3.48975 244.946 7.79242 244.946H35.0603V234.155C35.0602 231.421 34.4848 228.718 33.3716 226.222C32.2583 223.726 30.6322 221.492 28.5988 219.665ZM173.965 219.665L199.207 196.99C201.382 199.739 202.564 203.142 202.562 206.647V237.155C202.562 241.458 199.074 244.946 194.772 244.946H167.504V234.155C167.504 231.421 168.079 228.718 169.192 226.222C170.305 223.726 171.932 221.491 173.965 219.665Z" fill="#E4EAF6"/>
<path d="M111.02 244.946H91.543L93.9776 209.886H108.586L111.02 244.946Z" fill="#5B5D6E"/>
<path d="M111.02 202.095H91.543V209.427C91.543 211.832 93.4926 213.782 95.8982 213.782H106.665C109.07 213.782 111.02 211.832 111.02 209.427V202.095H111.02Z" fill="#515262"/>
<path d="M65.6763 170.051L101.282 202.096C101.282 202.096 91.3106 207.13 79.0054 217.276C76.467 219.368 72.6272 218.521 71.2658 215.526L54.5374 178.724L59.8295 170.786C61.1463 168.809 63.9106 168.462 65.6763 170.051Z" fill="#E4EAF6"/>
<path d="M136.888 170.051L101.281 202.096C101.281 202.096 111.253 207.13 123.558 217.276C126.097 219.368 129.937 218.521 131.298 215.526L148.026 178.724L142.734 170.786C141.417 168.809 138.653 168.462 136.888 170.051Z" fill="#E4EAF6"/>
<path d="M124.897 36.0548L128.548 61.862C145.219 65.196 147.621 91.3572 147.967 98.8293C148.03 100.185 148.463 101.495 149.198 102.635L155.559 112.502C155.559 112.502 153.382 96.1898 163.349 85.2341C163.35 85.2341 166.773 20.4729 124.897 36.0548Z" fill="#785550"/>
<path d="M159.467 110.841L155.069 128.431C154.816 129.445 154.231 130.344 153.408 130.987C152.584 131.63 151.57 131.979 150.525 131.979C149.384 131.979 148.282 131.562 147.426 130.806C146.57 130.051 146.02 129.009 145.878 127.876L143.629 109.884C143.027 105.068 146.781 100.815 151.635 100.815H151.638C156.888 100.816 160.74 105.748 159.467 110.841Z" fill="#F0C087"/>
<path d="M54.3741 29.0749L60.1357 33.0109C34.0854 52.2445 38.9542 85.2339 38.9542 85.2339C46.7449 93.0246 46.7449 112.502 46.7449 112.502L54.5356 104.711C54.5356 104.711 51.5291 82.2057 66.2217 73.5478C79.8557 65.5135 91.7853 69.6524 103.959 69.6524C136.583 69.6524 145.713 57.3574 144.13 42.3845C143.311 34.6371 131.466 18.4987 101.281 19.012C89.0991 19.2189 66.2226 22.9073 54.3741 29.0749Z" fill="#694B4B"/>
<path d="M52.1014 66.2439C52.1014 66.2439 47.9625 49.9317 60.1357 33.0114C34.0854 52.245 38.9542 85.2344 38.9542 85.2344C46.7449 93.0251 46.7449 112.502 46.7449 112.502L54.5356 104.712C54.5356 104.712 51.5291 82.2062 66.2217 73.5483C79.8556 65.514 91.7853 69.653 103.959 69.653C109.264 69.653 113.888 69.2977 118.006 68.6887C92.8819 69.5307 78.0715 50.4997 52.1014 66.2439Z" fill="#5A4146"/>
<path d="M43.0962 110.841L47.4938 128.431C47.747 129.445 48.3317 130.344 49.1551 130.987C49.9784 131.63 50.9929 131.979 52.0374 131.979C54.3997 131.979 56.3918 130.22 56.6848 127.876L58.9341 109.884C59.5361 105.068 55.7814 100.815 50.928 100.815H50.9245C45.6747 100.816 41.8231 105.748 43.0962 110.841Z" fill="#E6AF78"/>
<path d="M151.922 237.155H124.654C123.621 237.155 122.63 237.565 121.9 238.296C121.169 239.026 120.759 240.017 120.759 241.05V244.946H155.818V241.05C155.818 240.017 155.407 239.026 154.677 238.296C153.946 237.565 152.955 237.155 151.922 237.155Z" fill="#E4EAF6"/>
<path d="M496.341 159.723V132.456H426.223V159.723L461.282 190.887L496.341 159.723Z" fill="#E6AF78"/>
<path d="M550.549 172.479L502.347 161.137C501.618 160.966 500.949 160.675 500.322 160.322L461.281 183.096L423.762 159.221C422.769 160.161 421.546 160.822 420.216 161.137L372.013 172.479C364.974 174.135 360 180.416 360 187.647V218.155C360 222.459 363.488 225.946 367.791 225.946H554.77C559.073 225.946 562.561 222.458 562.561 218.155V187.647C562.562 180.415 557.588 174.134 550.549 172.479Z" fill="#EFF2FA"/>
<path d="M426.223 132.456V161.226C470.388 177.138 496.341 137.314 496.341 137.314V132.455H426.223V132.456Z" fill="#D29B6E"/>
<path d="M410.641 42.862L414.035 117.542C414.192 120.988 415.109 124.356 416.721 127.405C418.334 130.455 420.601 133.109 423.36 135.179L439.467 147.259C443.512 150.293 448.433 151.933 453.49 151.934H469.072C474.129 151.934 479.05 150.293 483.096 147.259L499.202 135.179C501.962 133.109 504.229 130.455 505.841 127.405C507.453 124.356 508.37 120.988 508.527 117.542L511.921 42.862H410.641Z" fill="#F0C087"/>
<path d="M449.595 58.4433C465.177 58.4433 488.549 54.548 494.093 42.8615H410.641L414.035 117.542C414.192 120.987 415.109 124.356 416.722 127.405C418.334 130.454 420.601 133.109 423.36 135.178L439.467 147.258C443.513 150.293 448.434 151.933 453.491 151.933H461.281C453.491 151.933 437.909 136.351 437.909 116.875V70.1294C437.909 66.234 441.804 58.4433 449.595 58.4433Z" fill="#E6AF78"/>
<path d="M388.599 200.665L363.357 177.99C361.182 180.739 360 184.142 360.002 187.647V218.155C360.002 222.458 363.49 225.946 367.792 225.946H395.06V215.155C395.06 212.421 394.485 209.718 393.372 207.222C392.258 204.726 390.632 202.492 388.599 200.665ZM533.965 200.665L559.207 177.99C561.382 180.739 562.564 184.142 562.562 187.647V218.155C562.562 222.458 559.074 225.946 554.772 225.946H527.504V215.155C527.504 212.421 528.079 209.718 529.192 207.222C530.305 204.726 531.932 202.491 533.965 200.665Z" fill="#E4EAF6"/>
<path d="M471.021 225.946H451.543L453.978 190.886H468.586L471.021 225.946Z" fill="#5B5D6E"/>
<path d="M471.021 183.095H451.543V190.427C451.543 192.832 453.493 194.782 455.898 194.782H466.665C469.07 194.782 471.02 192.832 471.02 190.427V183.095H471.021Z" fill="#515262"/>
<path d="M425.676 151.051L461.282 183.096C461.282 183.096 451.311 188.13 439.005 198.276C436.467 200.368 432.627 199.521 431.266 196.526L414.537 159.724L419.829 151.786C421.146 149.809 423.911 149.462 425.676 151.051Z" fill="#E4EAF6"/>
<path d="M496.888 151.051L461.282 183.096C461.282 183.096 471.253 188.13 483.559 198.276C486.097 200.368 489.937 199.521 491.298 196.526L508.027 159.724L502.735 151.786C501.417 149.809 498.653 149.462 496.888 151.051Z" fill="#E4EAF6"/>
<path d="M484.897 17.0548L488.548 42.862C505.219 46.196 507.621 72.3572 507.967 79.8293C508.03 81.1854 508.463 82.4947 509.198 83.6355L515.559 93.5021C515.559 93.5021 513.382 77.1898 523.349 66.2341C523.35 66.2341 526.773 1.47293 484.897 17.0548Z" fill="#785550"/>
<path d="M519.467 91.8406L515.069 109.431C514.816 110.445 514.231 111.344 513.408 111.987C512.585 112.63 511.57 112.979 510.526 112.979C509.384 112.979 508.282 112.562 507.426 111.806C506.57 111.051 506.02 110.009 505.878 108.876L503.629 90.8843C503.027 86.0683 506.782 81.8151 511.635 81.8151H511.639C516.888 81.8155 520.74 86.7479 519.467 91.8406Z" fill="#F0C087"/>
<path d="M414.374 10.0749L420.136 14.0109C394.085 33.2445 398.954 66.2339 398.954 66.2339C406.745 74.0246 406.745 93.5018 406.745 93.5018L414.536 85.7111C414.536 85.7111 411.529 63.2057 426.222 54.5478C439.856 46.5135 451.785 50.6524 463.959 50.6524C496.583 50.6524 505.713 38.3574 504.13 23.3845C503.311 15.6371 491.466 -0.501274 461.281 0.0119573C449.099 0.218927 426.223 3.90731 414.374 10.0749Z" fill="#694B4B"/>
<path d="M412.101 47.2439C412.101 47.2439 407.962 30.9317 420.136 14.0114C394.085 33.245 398.954 66.2344 398.954 66.2344C406.745 74.0251 406.745 93.5023 406.745 93.5023L414.536 85.7116C414.536 85.7116 411.529 63.2062 426.222 54.5483C439.856 46.514 451.785 50.653 463.959 50.653C469.264 50.653 473.888 50.2977 478.006 49.6887C452.882 50.5307 438.071 31.4997 412.101 47.2439Z" fill="#5A4146"/>
<path d="M403.096 91.8406L407.494 109.431C407.747 110.445 408.332 111.344 409.155 111.987C409.978 112.63 410.993 112.979 412.037 112.979C414.4 112.979 416.392 111.22 416.685 108.876L418.934 90.8843C419.536 86.0683 415.781 81.8151 410.928 81.8151H410.924C405.675 81.8155 401.823 86.7479 403.096 91.8406Z" fill="#E6AF78"/>
<path d="M511.922 218.155H484.654C483.621 218.155 482.63 218.565 481.9 219.296C481.169 220.026 480.759 221.017 480.759 222.05V225.946H515.818V222.05C515.818 221.017 515.407 220.026 514.677 219.296C513.946 218.565 512.955 218.155 511.922 218.155Z" fill="#E4EAF6"/>
<circle cx="580.341" cy="43.196" r="43.196" fill="#1BA652"/>
<path d="M599.539 28.7974L573.141 55.1949L561.143 43.196" stroke="white" stroke-width="5" stroke-linecap="round" stroke-linejoin="round"/>
<circle cx="225.579" cy="62.196" r="43.196" fill="#FF3C3F"/>
<path d="M239.978 47.7974L211.18 76.5947M211.18 47.7974L239.978 76.5947" stroke="white" stroke-width="5" stroke-linecap="round" stroke-linejoin="round"/>
<rect x="1.13924" y="149.139" width="142.304" height="87.7215" rx="5.43038" fill="url(#paint0_linear_98_678)" stroke="#CCCCCC" stroke-width="0.278481"/>
<path d="M37.991 155.848V162.734H36.7335L33.7376 158.4H33.6872V162.734H32.2313V155.848H33.509L36.4813 160.179H36.5418V155.848H37.991ZM42.4638 162.734H40.9037L43.2809 155.848H45.1571L47.5309 162.734H45.9707L44.2459 157.422H44.1921L42.4638 162.734ZM42.3663 160.027H46.0514V161.164H42.3663V160.027ZM49.339 157.048V155.848H54.9945V157.048H52.8863V162.734H51.4472V157.048H49.339ZM59.4648 155.848V162.734H58.0089V155.848H59.4648ZM69.0736 159.291C69.0736 160.042 68.9313 160.681 68.6466 161.208C68.3641 161.734 67.9786 162.137 67.4899 162.415C67.0035 162.69 66.4566 162.828 65.8491 162.828C65.2372 162.828 64.688 162.689 64.2016 162.411C63.7151 162.133 63.3307 161.731 63.0483 161.204C62.7658 160.677 62.6246 160.04 62.6246 159.291C62.6246 158.54 62.7658 157.901 63.0483 157.375C63.3307 156.848 63.7151 156.447 64.2016 156.171C64.688 155.893 65.2372 155.754 65.8491 155.754C66.4566 155.754 67.0035 155.893 67.4899 156.171C67.9786 156.447 68.3641 156.848 68.6466 157.375C68.9313 157.901 69.0736 158.54 69.0736 159.291ZM67.5975 159.291C67.5975 158.805 67.5247 158.394 67.379 158.06C67.2355 157.726 67.0327 157.473 66.7704 157.301C66.5081 157.128 66.201 157.042 65.8491 157.042C65.4972 157.042 65.1901 157.128 64.9278 157.301C64.6656 157.473 64.4616 157.726 64.3159 158.06C64.1724 158.394 64.1007 158.805 64.1007 159.291C64.1007 159.778 64.1724 160.188 64.3159 160.522C64.4616 160.856 64.6656 161.109 64.9278 161.282C65.1901 161.454 65.4972 161.54 65.8491 161.54C66.201 161.54 66.5081 161.454 66.7704 161.282C67.0327 161.109 67.2355 160.856 67.379 160.522C67.5247 160.188 67.5975 159.778 67.5975 159.291ZM77.9948 155.848V162.734H76.7373L73.7414 158.4H73.691V162.734H72.2351V155.848H73.5128L76.4851 160.179H76.5456V155.848H77.9948ZM82.4676 162.734H80.9075L83.2847 155.848H85.1609L87.5347 162.734H85.9745L84.2497 157.422H84.1959L82.4676 162.734ZM82.3701 160.027H86.0552V161.164H82.3701V160.027ZM90.4465 162.734V155.848H91.9024V161.534H94.8546V162.734H90.4465ZM103.632 155.848V162.734H102.176V155.848H103.632ZM109.354 162.734H106.913V155.848H109.374C110.067 155.848 110.663 155.986 111.163 156.262C111.663 156.535 112.047 156.928 112.316 157.442C112.587 157.955 112.723 158.569 112.723 159.284C112.723 160.002 112.587 160.618 112.316 161.134C112.047 161.649 111.661 162.045 111.156 162.321C110.654 162.596 110.053 162.734 109.354 162.734ZM108.369 161.487H109.293C109.724 161.487 110.086 161.41 110.38 161.258C110.675 161.103 110.897 160.865 111.045 160.542C111.195 160.217 111.271 159.798 111.271 159.284C111.271 158.776 111.195 158.36 111.045 158.037C110.897 157.714 110.677 157.477 110.383 157.324C110.089 157.172 109.727 157.095 109.297 157.095H108.369V161.487Z" fill="#F8C100"/>
<line x1="6.56958" y1="168.633" x2="138.013" y2="168.633" stroke="#CCCCCC" stroke-width="0.278481"/>
<path d="M9.16135 178.848V181.684H8.82907L7.28398 179.457H7.25629V181.684H6.91293V178.848H7.24521L8.79585 181.08H8.82354V178.848H9.16135ZM9.9647 181.684H9.60474L10.6459 178.848H11.0003L12.0414 181.684H11.6815L10.8342 179.297H10.812L9.9647 181.684ZM10.0976 180.576H11.5486V180.881H10.0976V180.576ZM12.4831 178.848H12.8929L13.8565 181.202H13.8897L14.8534 178.848H15.2632V181.684H14.942V179.529H14.9143L14.0282 181.684H13.7181L12.832 179.529H12.8043V181.684H12.4831V178.848ZM15.9516 181.684V178.848H17.6628V179.153H16.295V180.111H17.5742V180.415H16.295V181.379H17.685V181.684H15.9516Z" fill="#333333"/>
<path d="M7.78793 193.937H6.91293V191.101H7.8267C8.10175 191.101 8.33712 191.158 8.53279 191.272C8.72847 191.384 8.87845 191.546 8.98275 191.758C9.08705 191.968 9.1392 192.22 9.1392 192.514C9.1392 192.809 9.08659 193.063 8.98137 193.276C8.87615 193.489 8.72293 193.652 8.52172 193.766C8.3205 193.88 8.07591 193.937 7.78793 193.937ZM7.25629 193.632H7.76578C8.00022 193.632 8.19451 193.587 8.34865 193.496C8.50279 193.406 8.61771 193.277 8.69339 193.11C8.76908 192.943 8.80692 192.744 8.80692 192.514C8.80692 192.285 8.76954 192.088 8.69478 191.922C8.62002 191.756 8.50833 191.629 8.35973 191.54C8.21113 191.451 8.02607 191.406 7.80455 191.406H7.25629V193.632ZM12.1076 192.519C12.1076 192.818 12.0536 193.077 11.9456 193.294C11.8376 193.512 11.6894 193.68 11.5011 193.798C11.3129 193.916 11.0978 193.976 10.856 193.976C10.6141 193.976 10.3991 193.916 10.2108 193.798C10.0225 193.68 9.87437 193.512 9.76638 193.294C9.65839 193.077 9.60439 192.818 9.60439 192.519C9.60439 192.22 9.65839 191.962 9.76638 191.744C9.87437 191.526 10.0225 191.358 10.2108 191.24C10.3991 191.122 10.6141 191.063 10.856 191.063C11.0978 191.063 11.3129 191.122 11.5011 191.24C11.6894 191.358 11.8376 191.526 11.9456 191.744C12.0536 191.962 12.1076 192.22 12.1076 192.519ZM11.7753 192.519C11.7753 192.274 11.7342 192.066 11.6521 191.897C11.5708 191.729 11.4605 191.601 11.3212 191.514C11.1827 191.427 11.0276 191.384 10.856 191.384C10.6843 191.384 10.5288 191.427 10.3894 191.514C10.2509 191.601 10.1407 191.729 10.0585 191.897C9.97728 192.066 9.93667 192.274 9.93667 192.519C9.93667 192.765 9.97728 192.972 10.0585 193.141C10.1407 193.31 10.2509 193.437 10.3894 193.524C10.5288 193.611 10.6843 193.654 10.856 193.654C11.0276 193.654 11.1827 193.611 11.3212 193.524C11.4605 193.437 11.5708 193.31 11.6521 193.141C11.7342 192.972 11.7753 192.765 11.7753 192.519ZM12.6849 193.937V191.101H13.6762C13.8737 191.101 14.0366 191.135 14.1649 191.204C14.2932 191.271 14.3887 191.362 14.4515 191.477C14.5143 191.59 14.5456 191.716 14.5456 191.854C14.5456 191.976 14.524 192.077 14.4806 192.156C14.4381 192.236 14.3818 192.298 14.3117 192.345C14.2424 192.391 14.1672 192.425 14.086 192.447V192.475C14.1728 192.48 14.26 192.511 14.3477 192.566C14.4354 192.621 14.5087 192.701 14.5678 192.804C14.6269 192.908 14.6564 193.034 14.6564 193.184C14.6564 193.326 14.6241 193.454 14.5595 193.567C14.4949 193.681 14.3929 193.771 14.2535 193.837C14.1141 193.904 13.9328 193.937 13.7094 193.937H12.6849ZM13.0282 193.632H13.7094C13.9337 193.632 14.0929 193.589 14.1871 193.502C14.2821 193.414 14.3297 193.308 14.3297 193.184C14.3297 193.088 14.3052 192.999 14.2563 192.918C14.2074 192.836 14.1377 192.77 14.0472 192.721C13.9568 192.671 13.8497 192.646 13.726 192.646H13.0282V193.632ZM13.0282 192.347H13.6651C13.7685 192.347 13.8617 192.327 13.9448 192.286C14.0288 192.246 14.0952 192.189 14.1441 192.115C14.194 192.041 14.2189 191.954 14.2189 191.854C14.2189 191.73 14.1755 191.624 14.0888 191.537C14.002 191.45 13.8645 191.406 13.6762 191.406H13.0282V192.347Z" fill="#333333"/>
<path d="M8.46357 204.063C8.44695 203.923 8.37957 203.814 8.26143 203.736C8.14329 203.659 7.99838 203.62 7.8267 203.62C7.70117 203.62 7.59134 203.641 7.49719 203.681C7.40397 203.722 7.33105 203.778 7.27844 203.849C7.22675 203.92 7.20091 204 7.20091 204.091C7.20091 204.167 7.21891 204.232 7.2549 204.286C7.29182 204.34 7.3389 204.384 7.39612 204.42C7.45335 204.456 7.51334 204.485 7.57611 204.508C7.63887 204.53 7.69656 204.548 7.74917 204.562L8.03714 204.639C8.11098 204.659 8.19313 204.685 8.28358 204.719C8.37496 204.754 8.46218 204.8 8.54525 204.859C8.62925 204.917 8.69847 204.992 8.75293 205.084C8.80738 205.175 8.83461 205.287 8.83461 205.42C8.83461 205.573 8.79446 205.712 8.71416 205.835C8.63478 205.959 8.51849 206.057 8.36527 206.13C8.21297 206.203 8.02791 206.24 7.81009 206.24C7.60703 206.24 7.4312 206.207 7.28259 206.141C7.13491 206.076 7.01862 205.984 6.9337 205.867C6.84971 205.75 6.80218 205.614 6.7911 205.459H7.14553C7.15476 205.566 7.19076 205.654 7.25352 205.725C7.31721 205.794 7.39751 205.846 7.49442 205.88C7.59226 205.913 7.69748 205.93 7.81009 205.93C7.94115 205.93 8.05883 205.908 8.16313 205.866C8.26743 205.822 8.35004 205.762 8.41096 205.686C8.47187 205.608 8.50233 205.518 8.50233 205.415C8.50233 205.32 8.47603 205.244 8.42342 205.185C8.37081 205.126 8.30158 205.078 8.21574 205.041C8.1299 205.004 8.03714 204.971 7.93746 204.944L7.58857 204.844C7.36705 204.78 7.19168 204.689 7.06246 204.571C6.93324 204.453 6.86863 204.299 6.86863 204.108C6.86863 203.949 6.91155 203.81 6.99739 203.692C7.08415 203.573 7.20045 203.481 7.34628 203.415C7.49304 203.349 7.65687 203.316 7.83778 203.316C8.02053 203.316 8.18298 203.348 8.32512 203.414C8.46726 203.479 8.57986 203.567 8.66293 203.68C8.74693 203.792 8.79123 203.92 8.79585 204.063H8.46357ZM9.39914 206.19V203.354H11.1104V203.659H9.74249V204.617H11.0218V204.922H9.74249V205.885H11.1325V206.19H9.39914ZM11.8954 203.354L12.6264 204.534H12.6485L13.3796 203.354H13.7838L12.8922 204.772L13.7838 206.19H13.3796L12.6485 205.032H12.6264L11.8954 206.19H11.4911L12.4049 204.772L11.4911 203.354H11.8954Z" fill="#333333"/>
<path d="M9.16135 214.215V217.051H8.82907L7.28398 214.824H7.25629V217.051H6.91293V214.215H7.24521L8.79585 216.447H8.82354V214.215H9.16135ZM9.9647 217.051H9.60474L10.6459 214.215H11.0003L12.0414 217.051H11.6815L10.8342 214.664H10.812L9.9647 217.051ZM10.0976 215.943H11.5486V216.248H10.0976V215.943ZM11.9968 214.52V214.215H14.1234V214.52H13.2318V217.051H12.8884V214.52H11.9968ZM14.9966 214.215V217.051H14.6533V214.215H14.9966ZM18.0775 215.633C18.0775 215.932 18.0235 216.19 17.9155 216.408C17.8075 216.626 17.6594 216.794 17.4711 216.912C17.2828 217.03 17.0677 217.089 16.8259 217.089C16.5841 217.089 16.369 217.03 16.1807 216.912C15.9924 216.794 15.8443 216.626 15.7363 216.408C15.6283 216.19 15.5743 215.932 15.5743 215.633C15.5743 215.334 15.6283 215.075 15.7363 214.858C15.8443 214.64 15.9924 214.472 16.1807 214.354C16.369 214.236 16.5841 214.176 16.8259 214.176C17.0677 214.176 17.2828 214.236 17.4711 214.354C17.6594 214.472 17.8075 214.64 17.9155 214.858C18.0235 215.075 18.0775 215.334 18.0775 215.633ZM17.7452 215.633C17.7452 215.387 17.7041 215.18 17.622 215.011C17.5408 214.842 17.4305 214.715 17.2911 214.628C17.1526 214.541 16.9976 214.498 16.8259 214.498C16.6542 214.498 16.4987 214.541 16.3593 214.628C16.2209 214.715 16.1106 214.842 16.0284 215.011C15.9472 215.18 15.9066 215.387 15.9066 215.633C15.9066 215.878 15.9472 216.086 16.0284 216.255C16.1106 216.423 16.2209 216.551 16.3593 216.638C16.4987 216.725 16.6542 216.768 16.8259 216.768C16.9976 216.768 17.1526 216.725 17.2911 216.638C17.4305 216.551 17.5408 216.423 17.622 216.255C17.7041 216.086 17.7452 215.878 17.7452 215.633ZM20.9032 214.215V217.051H20.571L19.0259 214.824H18.9982V217.051H18.6548V214.215H18.9871L20.5377 216.447H20.5654V214.215H20.9032ZM21.7066 217.051H21.3466L22.3878 214.215H22.7422L23.7833 217.051H23.4234L22.5761 214.664H22.5539L21.7066 217.051ZM21.8395 215.943H23.2905V216.248H21.8395V215.943ZM24.225 217.051V214.215H24.5683V216.746H25.8864V217.051H24.225ZM26.7614 214.215V217.051H26.418V214.215H26.7614ZM27.2948 214.52V214.215H29.4213V214.52H28.5297V217.051H28.1864V214.52H27.2948ZM29.7076 214.215H30.1008L30.8872 215.539H30.9204L31.7068 214.215H32.1L31.0755 215.882V217.051H30.7321V215.882L29.7076 214.215Z" fill="#333333"/>
<path d="M37.9224 182.127V178.481H39.1542C39.439 178.481 39.6728 178.53 39.8556 178.627C40.0383 178.723 40.1736 178.855 40.2614 179.024C40.3492 179.192 40.3931 179.384 40.3931 179.599C40.3931 179.814 40.3492 180.004 40.2614 180.17C40.1736 180.336 40.0389 180.467 39.8573 180.562C39.6758 180.656 39.4438 180.703 39.1613 180.703H38.1645V180.304H39.1471C39.3417 180.304 39.4984 180.275 39.617 180.218C39.7369 180.161 39.8235 180.081 39.8769 179.976C39.9315 179.871 39.9588 179.745 39.9588 179.599C39.9588 179.453 39.9315 179.325 39.8769 179.216C39.8223 179.107 39.7351 179.023 39.6153 178.963C39.4954 178.903 39.337 178.873 39.14 178.873H38.3639V182.127H37.9224ZM39.6384 180.489L40.5355 182.127H40.0229L39.14 180.489H39.6384ZM41.2783 182.127H40.8155L42.1541 178.481H42.6098L43.9484 182.127H43.4856L42.3962 179.058H42.3677L41.2783 182.127ZM41.4492 180.703H43.3147V181.094H41.4492V180.703ZM45.9118 178.481H46.3532V181.087C46.3532 181.32 46.3105 181.517 46.2251 181.68C46.1396 181.842 46.0192 181.966 45.8637 182.05C45.7083 182.134 45.5249 182.176 45.3137 182.176C45.1143 182.176 44.9369 182.14 44.7814 182.068C44.626 181.994 44.5038 181.89 44.4147 181.755C44.3257 181.619 44.2812 181.458 44.2812 181.272H44.7156C44.7156 181.375 44.7411 181.466 44.7921 181.543C44.8443 181.619 44.9155 181.678 45.0057 181.721C45.0959 181.763 45.1986 181.785 45.3137 181.785C45.4407 181.785 45.5486 181.758 45.6377 181.705C45.7267 181.651 45.7943 181.573 45.8406 181.47C45.888 181.365 45.9118 181.238 45.9118 181.087V178.481ZM47.2379 182.127V178.481H49.4381V178.873H47.6794V180.104H49.3242V180.496H47.6794V181.735H49.4666V182.127H47.2379ZM52.2274 179.392C52.2061 179.212 52.1195 179.072 51.9676 178.972C51.8157 178.873 51.6293 178.823 51.4086 178.823C51.2472 178.823 51.106 178.849 50.985 178.901C50.8651 178.953 50.7714 179.025 50.7037 179.116C50.6373 179.208 50.604 179.312 50.604 179.428C50.604 179.525 50.6272 179.609 50.6735 179.679C50.7209 179.748 50.7814 179.805 50.855 179.852C50.9286 179.897 51.0057 179.934 51.0864 179.964C51.1671 179.992 51.2413 180.015 51.3089 180.033L51.6792 180.133C51.7741 180.158 51.8797 180.192 51.996 180.236C52.1135 180.28 52.2257 180.34 52.3325 180.416C52.4405 180.491 52.5295 180.587 52.5995 180.704C52.6695 180.822 52.7045 180.966 52.7045 181.137C52.7045 181.334 52.6529 181.512 52.5496 181.671C52.4476 181.83 52.2981 181.956 52.1011 182.05C51.9053 182.144 51.6673 182.191 51.3873 182.191C51.1262 182.191 50.9001 182.149 50.7091 182.064C50.5192 181.98 50.3697 181.863 50.2605 181.712C50.1525 181.561 50.0914 181.386 50.0771 181.187H50.5328C50.5447 181.324 50.591 181.438 50.6717 181.528C50.7536 181.617 50.8568 181.684 50.9814 181.728C51.1072 181.771 51.2425 181.792 51.3873 181.792C51.5558 181.792 51.7071 181.765 51.8412 181.71C51.9753 181.654 52.0815 181.577 52.1598 181.479C52.2381 181.379 52.2773 181.263 52.2773 181.13C52.2773 181.009 52.2435 180.91 52.1758 180.834C52.1082 180.758 52.0192 180.697 51.9088 180.649C51.7985 180.602 51.6792 180.56 51.551 180.525L51.1024 180.396C50.8176 180.314 50.5922 180.198 50.426 180.046C50.2599 179.894 50.1768 179.695 50.1768 179.449C50.1768 179.245 50.232 179.067 50.3424 178.915C50.4539 178.762 50.6034 178.644 50.7909 178.559C50.9796 178.474 51.1903 178.431 51.4229 178.431C51.6578 178.431 51.8667 178.473 52.0494 178.558C52.2322 178.641 52.377 178.755 52.4838 178.899C52.5918 179.044 52.6487 179.208 52.6547 179.392H52.2274ZM53.4303 182.127V178.481H53.8718V180.104H55.8156V178.481H56.2571V182.127H55.8156V180.496H53.8718V182.127H53.4303ZM58.5507 178.481H59.0776L60.3165 181.507H60.3592L61.5981 178.481H62.125V182.127H61.7121V179.357H61.6765L60.5372 182.127H60.1385L58.9993 179.357H58.9637V182.127H58.5507V178.481ZM63.4516 178.481V182.127H63.0102V178.481H63.4516ZM66.3304 179.392C66.3091 179.212 66.2225 179.072 66.0706 178.972C65.9187 178.873 65.7323 178.823 65.5116 178.823C65.3502 178.823 65.209 178.849 65.088 178.901C64.9681 178.953 64.8744 179.025 64.8067 179.116C64.7403 179.208 64.707 179.312 64.707 179.428C64.707 179.525 64.7302 179.609 64.7764 179.679C64.8239 179.748 64.8844 179.805 64.958 179.852C65.0316 179.897 65.1087 179.934 65.1894 179.964C65.2701 179.992 65.3443 180.015 65.4119 180.033L65.7822 180.133C65.8771 180.158 65.9827 180.192 66.099 180.236C66.2165 180.28 66.3287 180.34 66.4355 180.416C66.5435 180.491 66.6325 180.587 66.7025 180.704C66.7725 180.822 66.8075 180.966 66.8075 181.137C66.8075 181.334 66.7559 181.512 66.6526 181.671C66.5506 181.83 66.4011 181.956 66.2041 182.05C66.0083 182.144 65.7703 182.191 65.4903 182.191C65.2292 182.191 65.0031 182.149 64.812 182.064C64.6222 181.98 64.4726 181.863 64.3635 181.712C64.2555 181.561 64.1944 181.386 64.1801 181.187H64.6358C64.6477 181.324 64.694 181.438 64.7747 181.528C64.8565 181.617 64.9598 181.684 65.0844 181.728C65.2102 181.771 65.3455 181.792 65.4903 181.792C65.6588 181.792 65.8101 181.765 65.9442 181.71C66.0783 181.654 66.1845 181.577 66.2628 181.479C66.3411 181.379 66.3803 181.263 66.3803 181.13C66.3803 181.009 66.3465 180.91 66.2788 180.834C66.2112 180.758 66.1222 180.697 66.0118 180.649C65.9014 180.602 65.7822 180.56 65.654 180.525L65.2054 180.396C64.9206 180.314 64.6952 180.198 64.529 180.046C64.3629 179.894 64.2798 179.695 64.2798 179.449C64.2798 179.245 64.335 179.067 64.4454 178.915C64.5569 178.762 64.7064 178.644 64.8939 178.559C65.0826 178.474 65.2933 178.431 65.5259 178.431C65.7608 178.431 65.9697 178.473 66.1524 178.558C66.3352 178.641 66.48 178.755 66.5868 178.899C66.6948 179.044 66.7517 179.208 66.7577 179.392H66.3304ZM67.5333 182.127V178.481H67.9748V180.104H69.9186V178.481H70.3601V182.127H69.9186V180.496H67.9748V182.127H67.5333ZM71.2439 182.127V178.481H72.4757C72.7605 178.481 72.9943 178.53 73.177 178.627C73.3598 178.723 73.495 178.855 73.5829 179.024C73.6707 179.192 73.7146 179.384 73.7146 179.599C73.7146 179.814 73.6707 180.004 73.5829 180.17C73.495 180.336 73.3604 180.467 73.1788 180.562C72.9972 180.656 72.7652 180.703 72.4828 180.703H71.486V180.304H72.4685C72.6632 180.304 72.8198 180.275 72.9385 180.218C73.0583 180.161 73.145 180.081 73.1984 179.976C73.253 179.871 73.2803 179.745 73.2803 179.599C73.2803 179.453 73.253 179.325 73.1984 179.216C73.1438 179.107 73.0566 179.023 72.9367 178.963C72.8168 178.903 72.6584 178.873 72.4614 178.873H71.6853V182.127H71.2439ZM72.9598 180.489L73.857 182.127H73.3443L72.4614 180.489H72.9598ZM74.5997 182.127H74.1369L75.4755 178.481H75.9312L77.2698 182.127H76.807L75.7176 179.058H75.6891L74.5997 182.127ZM74.7706 180.703H76.6361V181.094H74.7706V180.703Z" fill="#333333"/>
<path d="M37.8583 194.38V194.059L39.0617 192.742C39.2029 192.588 39.3192 192.454 39.4105 192.34C39.5019 192.225 39.5696 192.117 39.6135 192.016C39.6586 191.914 39.6811 191.807 39.6811 191.695C39.6811 191.567 39.6503 191.456 39.5886 191.363C39.528 191.269 39.445 191.196 39.3393 191.145C39.2337 191.094 39.1151 191.069 38.9833 191.069C38.8433 191.069 38.7211 191.098 38.6166 191.156C38.5134 191.213 38.4333 191.293 38.3763 191.396C38.3206 191.5 38.2927 191.621 38.2927 191.76H37.8726C37.8726 191.546 37.9218 191.358 38.0203 191.197C38.1188 191.036 38.2529 190.91 38.4226 190.82C38.5935 190.729 38.7852 190.684 38.9976 190.684C39.2112 190.684 39.4005 190.729 39.5654 190.82C39.7304 190.91 39.8597 191.031 39.9535 191.185C40.0472 191.338 40.0941 191.508 40.0941 191.695C40.0941 191.83 40.0698 191.961 40.0211 192.089C39.9736 192.216 39.8906 192.358 39.7719 192.514C39.6544 192.67 39.4912 192.86 39.2824 193.084L38.4636 193.96V193.988H40.1582V194.38H37.8583ZM42.0824 194.43C41.8142 194.43 41.5858 194.357 41.3971 194.211C41.2084 194.064 41.0642 193.85 40.9645 193.572C40.8649 193.292 40.815 192.953 40.815 192.557C40.815 192.163 40.8649 191.827 40.9645 191.548C41.0654 191.268 41.2102 191.054 41.3989 190.907C41.5887 190.759 41.8166 190.684 42.0824 190.684C42.3482 190.684 42.5755 190.759 42.7642 190.907C42.9541 191.054 43.0988 191.268 43.1985 191.548C43.2994 191.827 43.3498 192.163 43.3498 192.557C43.3498 192.953 43.3 193.292 43.2003 193.572C43.1006 193.85 42.9564 194.064 42.7677 194.211C42.5791 194.357 42.3506 194.43 42.0824 194.43ZM42.0824 194.038C42.3482 194.038 42.5547 193.91 42.7019 193.653C42.849 193.397 42.9226 193.032 42.9226 192.557C42.9226 192.241 42.8888 191.973 42.8211 191.751C42.7547 191.529 42.6586 191.36 42.5328 191.243C42.4082 191.127 42.2581 191.069 42.0824 191.069C41.819 191.069 41.6131 191.199 41.4647 191.459C41.3164 191.717 41.2422 192.083 41.2422 192.557C41.2422 192.873 41.2755 193.141 41.3419 193.362C41.4084 193.582 41.5039 193.75 41.6285 193.865C41.7543 193.98 41.9056 194.038 42.0824 194.038ZM46.7319 190.563L45.5571 194.928H45.1726L46.3475 190.563H46.7319ZM49.8217 194.43C49.5535 194.43 49.3251 194.357 49.1364 194.211C48.9477 194.064 48.8035 193.85 48.7038 193.572C48.6041 193.292 48.5543 192.953 48.5543 192.557C48.5543 192.163 48.6041 191.827 48.7038 191.548C48.8047 191.268 48.9495 191.054 49.1381 190.907C49.328 190.759 49.5559 190.684 49.8217 190.684C50.0875 190.684 50.3148 190.759 50.5035 190.907C50.6933 191.054 50.8381 191.268 50.9378 191.548C51.0387 191.827 51.0891 192.163 51.0891 192.557C51.0891 192.953 51.0393 193.292 50.9396 193.572C50.8399 193.85 50.6957 194.064 50.507 194.211C50.3183 194.357 50.0899 194.43 49.8217 194.43ZM49.8217 194.038C50.0875 194.038 50.294 193.91 50.4412 193.653C50.5883 193.397 50.6619 193.032 50.6619 192.557C50.6619 192.241 50.6281 191.973 50.5604 191.751C50.494 191.529 50.3978 191.36 50.272 191.243C50.1474 191.127 49.9973 191.069 49.8217 191.069C49.5582 191.069 49.3523 191.199 49.204 191.459C49.0557 191.717 48.9815 192.083 48.9815 192.557C48.9815 192.873 49.0147 193.141 49.0812 193.362C49.1476 193.582 49.2432 193.75 49.3678 193.865C49.4936 193.98 49.6449 194.038 49.8217 194.038ZM52.9048 194.43C52.6959 194.43 52.5078 194.388 52.3405 194.305C52.1732 194.222 52.0391 194.108 51.9382 193.963C51.8373 193.818 51.7821 193.653 51.7726 193.468H52.1999C52.2165 193.633 52.2912 193.77 52.4241 193.878C52.5582 193.985 52.7184 194.038 52.9048 194.038C53.0543 194.038 53.1872 194.003 53.3035 193.933C53.421 193.863 53.5129 193.767 53.5794 193.645C53.647 193.521 53.6809 193.382 53.6809 193.226C53.6809 193.067 53.6459 192.925 53.5758 192.801C53.507 192.675 53.4121 192.576 53.291 192.504C53.17 192.431 53.0317 192.394 52.8763 192.393C52.7647 192.392 52.6502 192.409 52.5327 192.445C52.4152 192.479 52.3185 192.524 52.2426 192.578L51.8296 192.528L52.0503 190.734H53.9443V191.126H52.4206L52.2924 192.201H52.3138C52.3885 192.142 52.4823 192.092 52.595 192.053C52.7078 192.014 52.8253 191.994 52.9475 191.994C53.1706 191.994 53.3694 192.048 53.5438 192.155C53.7194 192.26 53.8571 192.405 53.9568 192.589C54.0576 192.773 54.1081 192.983 54.1081 193.219C54.1081 193.452 54.0559 193.659 53.9514 193.842C53.8482 194.024 53.7058 194.167 53.5242 194.273C53.3427 194.377 53.1362 194.43 52.9048 194.43ZM57.5209 190.563L56.3461 194.928H55.9616L57.1364 190.563H57.5209ZM60.7032 190.734V194.38H60.2618V191.197H60.2404L59.3504 191.788V191.339L60.2618 190.734H60.7032ZM62.9123 190.684C63.0618 190.686 63.2113 190.714 63.3609 190.77C63.5104 190.826 63.6468 190.918 63.7703 191.047C63.8937 191.176 63.9928 191.351 64.0675 191.573C64.1423 191.795 64.1797 192.073 64.1797 192.407C64.1797 192.731 64.1488 193.019 64.0871 193.271C64.0266 193.521 63.9388 193.732 63.8237 193.904C63.7097 194.077 63.5709 194.207 63.4071 194.296C63.2446 194.385 63.0606 194.43 62.8553 194.43C62.6512 194.43 62.469 194.389 62.3088 194.309C62.1498 194.227 62.0193 194.113 61.9172 193.969C61.8163 193.823 61.7517 193.653 61.7232 193.461H62.1575C62.1967 193.629 62.2744 193.767 62.3907 193.876C62.5082 193.984 62.6631 194.038 62.8553 194.038C63.1366 194.038 63.3585 193.915 63.5211 193.67C63.6848 193.424 63.7667 193.077 63.7667 192.628H63.7382C63.6718 192.728 63.5929 192.814 63.5015 192.886C63.4101 192.959 63.3086 193.014 63.1971 193.054C63.0855 193.093 62.9669 193.112 62.8411 193.112C62.6322 193.112 62.4406 193.061 62.2661 192.957C62.0929 192.853 61.954 192.71 61.8496 192.528C61.7463 192.346 61.6947 192.137 61.6947 191.902C61.6947 191.679 61.7446 191.475 61.8442 191.29C61.9451 191.103 62.0863 190.955 62.2679 190.845C62.4506 190.734 62.6654 190.681 62.9123 190.684ZM62.9123 191.076C62.7627 191.076 62.6281 191.113 62.5082 191.188C62.3895 191.262 62.2952 191.361 62.2252 191.487C62.1563 191.612 62.1219 191.75 62.1219 191.902C62.1219 192.054 62.1552 192.192 62.2216 192.317C62.2893 192.44 62.3812 192.539 62.4975 192.612C62.615 192.685 62.7485 192.721 62.898 192.721C63.0108 192.721 63.1158 192.699 63.2131 192.655C63.3104 192.61 63.3953 192.549 63.4677 192.472C63.5412 192.393 63.5988 192.305 63.6403 192.206C63.6819 192.107 63.7026 192.003 63.7026 191.895C63.7026 191.752 63.6682 191.619 63.5994 191.494C63.5317 191.37 63.438 191.269 63.3181 191.192C63.1995 191.115 63.0642 191.076 62.9123 191.076ZM66.0474 194.43C65.803 194.43 65.587 194.386 65.3995 194.3C65.2132 194.212 65.0678 194.091 64.9634 193.938C64.8589 193.784 64.8073 193.608 64.8085 193.411C64.8073 193.257 64.8376 193.115 64.8993 192.984C64.961 192.852 65.0452 192.743 65.152 192.655C65.26 192.566 65.3805 192.51 65.5134 192.486V192.464C65.3389 192.419 65.2001 192.321 65.0969 192.171C64.9936 192.019 64.9426 191.846 64.9438 191.653C64.9426 191.468 64.9895 191.302 65.0844 191.156C65.1793 191.01 65.3099 190.895 65.476 190.811C65.6433 190.726 65.8338 190.684 66.0474 190.684C66.2586 190.684 66.4473 190.726 66.6135 190.811C66.7796 190.895 66.9101 191.01 67.0051 191.156C67.1012 191.302 67.1499 191.468 67.1511 191.653C67.1499 191.846 67.0971 192.019 66.9926 192.171C66.8894 192.321 66.7523 192.419 66.5814 192.464V192.486C66.7132 192.51 66.8318 192.566 66.9374 192.655C67.0431 192.743 67.1273 192.852 67.1902 192.984C67.2531 193.115 67.2851 193.257 67.2863 193.411C67.2851 193.608 67.2317 193.784 67.1261 193.938C67.0217 194.091 66.8763 194.212 66.69 194.3C66.5049 194.386 66.2907 194.43 66.0474 194.43ZM66.0474 194.038C66.2124 194.038 66.3548 194.011 66.4746 193.958C66.5945 193.904 66.687 193.829 66.7523 193.732C66.8176 193.635 66.8508 193.521 66.852 193.39C66.8508 193.252 66.8152 193.131 66.7452 193.025C66.6752 192.92 66.5797 192.836 66.4586 192.776C66.3387 192.715 66.2017 192.685 66.0474 192.685C65.892 192.685 65.7531 192.715 65.6309 192.776C65.5098 192.836 65.4143 192.92 65.3443 193.025C65.2755 193.131 65.2416 193.252 65.2428 193.39C65.2416 193.521 65.2731 193.635 65.3372 193.732C65.4024 193.829 65.4956 193.904 65.6166 193.958C65.7377 194.011 65.8813 194.038 66.0474 194.038ZM66.0474 192.308C66.178 192.308 66.2937 192.282 66.3945 192.229C66.4966 192.177 66.5767 192.104 66.6348 192.01C66.693 191.917 66.7226 191.807 66.7238 191.681C66.7226 191.558 66.6936 191.45 66.6366 191.359C66.5797 191.266 66.5007 191.195 66.3999 191.145C66.299 191.094 66.1815 191.069 66.0474 191.069C65.9109 191.069 65.7917 191.094 65.6896 191.145C65.5876 191.195 65.5086 191.266 65.4529 191.359C65.3971 191.45 65.3698 191.558 65.371 191.681C65.3698 191.807 65.3977 191.917 65.4547 192.01C65.5128 192.104 65.5929 192.177 65.695 192.229C65.797 192.282 65.9145 192.308 66.0474 192.308ZM69.1291 190.684C69.2787 190.686 69.4282 190.714 69.5777 190.77C69.7272 190.826 69.8637 190.918 69.9871 191.047C70.1106 191.176 70.2096 191.351 70.2844 191.573C70.3592 191.795 70.3966 192.073 70.3966 192.407C70.3966 192.731 70.3657 193.019 70.304 193.271C70.2435 193.521 70.1556 193.732 70.0405 193.904C69.9266 194.077 69.7878 194.207 69.624 194.296C69.4614 194.385 69.2775 194.43 69.0722 194.43C68.8681 194.43 68.6859 194.389 68.5257 194.309C68.3667 194.227 68.2361 194.113 68.1341 193.969C68.0332 193.823 67.9685 193.653 67.9401 193.461H68.3744C68.4136 193.629 68.4913 193.767 68.6076 193.876C68.7251 193.984 68.8799 194.038 69.0722 194.038C69.3534 194.038 69.5753 193.915 69.7379 193.67C69.9017 193.424 69.9836 193.077 69.9836 192.628H69.9551C69.8886 192.728 69.8097 192.814 69.7183 192.886C69.627 192.959 69.5255 193.014 69.414 193.054C69.3024 193.093 69.1837 193.112 69.0579 193.112C68.8491 193.112 68.6574 193.061 68.483 192.957C68.3097 192.853 68.1709 192.71 68.0664 192.528C67.9632 192.346 67.9116 192.137 67.9116 191.902C67.9116 191.679 67.9614 191.475 68.0611 191.29C68.162 191.103 68.3032 190.955 68.4848 190.845C68.6675 190.734 68.8823 190.681 69.1291 190.684ZM69.1291 191.076C68.9796 191.076 68.8449 191.113 68.7251 191.188C68.6064 191.262 68.5121 191.361 68.442 191.487C68.3732 191.612 68.3388 191.75 68.3388 191.902C68.3388 192.054 68.372 192.192 68.4385 192.317C68.5061 192.44 68.5981 192.539 68.7144 192.612C68.8319 192.685 68.9654 192.721 69.1149 192.721C69.2276 192.721 69.3327 192.699 69.43 192.655C69.5273 192.61 69.6121 192.549 69.6845 192.472C69.7581 192.393 69.8157 192.305 69.8572 192.206C69.8987 192.107 69.9195 192.003 69.9195 191.895C69.9195 191.752 69.8851 191.619 69.8163 191.494C69.7486 191.37 69.6549 191.269 69.535 191.192C69.4163 191.115 69.281 191.076 69.1291 191.076Z" fill="#333333"/>
<path d="M37.9224 202.987H38.4493L39.6882 206.013H39.731L40.9699 202.987H41.4968V206.633H41.0838V203.863H41.0482L39.909 206.633H39.5102L38.371 203.863H38.3354V206.633H37.9224V202.987ZM42.5314 206.633H42.0686L43.4072 202.987H43.8629L45.2015 206.633H44.7387L43.6493 203.564H43.6208L42.5314 206.633ZM42.7023 205.209H44.5678V205.6H42.7023V205.209ZM45.7694 206.633V202.987H46.2108V206.241H47.9055V206.633H45.7694ZM48.589 206.633V202.987H50.7892V203.379H49.0305V204.611H50.6752V205.002H49.0305V206.241H50.8176V206.633H48.589Z" fill="#333333"/>
<path d="M38.3639 213.848V217.494H37.9224V213.848H38.3639ZM42.1398 213.848V217.494H41.7126L39.7261 214.631H39.6905V217.494H39.249V213.848H39.6762L41.6699 216.718H41.7055V213.848H42.1398ZM44.1482 217.494H43.0232V213.848H44.198C44.5517 213.848 44.8543 213.921 45.1059 214.067C45.3574 214.212 45.5503 214.42 45.6844 214.692C45.8185 214.962 45.8855 215.286 45.8855 215.664C45.8855 216.043 45.8179 216.37 45.6826 216.645C45.5473 216.918 45.3503 217.128 45.0916 217.275C44.8329 217.421 44.5184 217.494 44.1482 217.494ZM43.4646 217.102H44.1197C44.4211 217.102 44.6709 217.044 44.8691 216.928C45.0673 216.811 45.215 216.646 45.3123 216.431C45.4097 216.216 45.4583 215.96 45.4583 215.664C45.4583 215.369 45.4102 215.116 45.3141 214.904C45.218 214.69 45.0744 214.526 44.8834 214.412C44.6923 214.297 44.4544 214.24 44.1695 214.24H43.4646V217.102ZM47.0675 213.848V217.494H46.626V213.848H47.0675ZM48.1021 217.494H47.6393L48.9779 213.848H49.4336L50.7722 217.494H50.3094L49.22 214.425H49.1915L48.1021 217.494ZM48.273 216.07H50.1385V216.461H48.273V216.07ZM54.2309 213.848V217.494H53.8037L51.8171 214.631H51.7815V217.494H51.3401V213.848H51.7673L53.761 216.718H53.7966V213.848H54.2309Z" fill="#333333"/>
<rect x="107.937" y="177.684" width="29.7975" height="35.924" rx="1.39241" fill="#D9D9D9"/>
<path d="M128.155 203.876V199.832H117.757V203.876L122.956 208.497L128.155 203.876Z" fill="#E6AF78"/>
<path d="M136.194 205.767L129.046 204.086C128.938 204.06 128.839 204.017 128.746 203.965L122.956 207.342L117.392 203.801C117.245 203.941 117.064 204.039 116.866 204.086L109.718 205.768C108.674 206.013 107.937 206.945 107.937 208.017V212.541C107.937 213.179 108.454 213.696 109.092 213.696H136.82C137.458 213.696 137.975 213.179 137.975 212.541V208.017C137.976 206.944 137.238 206.013 136.194 205.767Z" fill="#EFF2FA"/>
<path d="M117.757 199.832V204.099C124.306 206.458 128.155 200.553 128.155 200.553V199.832H117.757V199.832Z" fill="#D29B6E"/>
<path d="M115.447 186.546L115.95 197.621C115.973 198.132 116.109 198.631 116.348 199.083C116.587 199.536 116.924 199.929 117.333 200.236L119.721 202.028C120.321 202.477 121.051 202.721 121.801 202.721H124.112C124.862 202.721 125.591 202.478 126.191 202.028L128.58 200.236C128.989 199.929 129.325 199.536 129.564 199.083C129.803 198.631 129.939 198.132 129.963 197.621L130.466 186.546H115.447Z" fill="#F0C087"/>
<path d="M121.223 188.857C123.534 188.857 127 188.279 127.822 186.546H115.447L115.95 197.621C115.973 198.132 116.109 198.631 116.348 199.083C116.587 199.536 116.924 199.929 117.333 200.236L119.721 202.028C120.321 202.477 121.051 202.721 121.801 202.721H122.956C121.801 202.721 119.49 200.41 119.49 197.522V190.59C119.49 190.012 120.068 188.857 121.223 188.857Z" fill="#E6AF78"/>
<path d="M112.178 209.947L108.435 206.585C108.112 206.992 107.937 207.497 107.937 208.017V212.541C107.937 213.179 108.454 213.696 109.092 213.696H113.136V212.096C113.136 211.691 113.051 211.29 112.886 210.92C112.72 210.55 112.479 210.218 112.178 209.947ZM133.735 209.947L137.478 206.585C137.801 206.992 137.976 207.497 137.976 208.017V212.541C137.976 213.179 137.458 213.696 136.82 213.696H132.777V212.096C132.777 211.691 132.862 211.29 133.027 210.92C133.192 210.55 133.433 210.218 133.735 209.947Z" fill="#E4EAF6"/>
<path d="M124.4 213.696H121.512L121.873 208.497H124.039L124.4 213.696Z" fill="#5B5D6E"/>
<path d="M124.4 207.342H121.512V208.429C121.512 208.786 121.801 209.075 122.158 209.075H123.754C124.111 209.075 124.4 208.786 124.4 208.429V207.342H124.4Z" fill="#515262"/>
<path d="M117.676 202.59L122.956 207.342C122.956 207.342 121.477 208.089 119.653 209.593C119.276 209.904 118.707 209.778 118.505 209.334L116.024 203.876L116.809 202.699C117.004 202.406 117.414 202.354 117.676 202.59Z" fill="#E4EAF6"/>
<path d="M128.236 202.59L122.956 207.342C122.956 207.342 124.435 208.089 126.26 209.593C126.636 209.904 127.206 209.778 127.408 209.334L129.888 203.876L129.104 202.699C128.908 202.406 128.498 202.354 128.236 202.59Z" fill="#E4EAF6"/>
<path d="M126.458 182.719L127 186.546C129.472 187.04 129.828 190.92 129.879 192.028C129.889 192.229 129.953 192.423 130.062 192.593L131.005 194.056C131.005 194.056 130.682 191.637 132.161 190.012C132.161 190.012 132.668 180.408 126.458 182.719Z" fill="#785550"/>
<path d="M131.585 193.809L130.933 196.418C130.895 196.568 130.808 196.702 130.686 196.797C130.564 196.892 130.414 196.944 130.259 196.944C130.089 196.944 129.926 196.882 129.799 196.77C129.672 196.658 129.591 196.504 129.57 196.336L129.236 193.668C129.147 192.953 129.704 192.323 130.423 192.323H130.424C131.202 192.323 131.773 193.054 131.585 193.809Z" fill="#F0C087"/>
<path d="M116 181.684L116.854 182.268C112.991 185.12 113.713 190.012 113.713 190.012C114.869 191.167 114.869 194.056 114.869 194.056L116.024 192.9C116.024 192.9 115.578 189.563 117.757 188.279C119.779 187.088 121.548 187.701 123.353 187.701C128.191 187.701 129.545 185.878 129.31 183.658C129.189 182.509 127.432 180.115 122.956 180.192C121.15 180.222 117.757 180.769 116 181.684Z" fill="#694B4B"/>
<path d="M115.663 187.196C115.663 187.196 115.049 184.777 116.854 182.268C112.991 185.12 113.713 190.012 113.713 190.012C114.869 191.167 114.869 194.056 114.869 194.056L116.024 192.9C116.024 192.9 115.578 189.563 117.757 188.279C119.779 187.088 121.548 187.701 123.353 187.701C124.14 187.701 124.826 187.649 125.436 187.558C121.711 187.683 119.514 184.861 115.663 187.196Z" fill="#5A4146"/>
<path d="M114.328 193.809L114.98 196.418C115.018 196.568 115.104 196.702 115.226 196.797C115.348 196.892 115.499 196.944 115.654 196.944C116.004 196.944 116.299 196.683 116.343 196.336L116.676 193.668C116.766 192.953 116.209 192.323 115.489 192.323H115.489C114.71 192.323 114.139 193.054 114.328 193.809Z" fill="#E6AF78"/>
<path d="M130.466 212.541H126.422C126.269 212.541 126.122 212.602 126.014 212.71C125.905 212.819 125.844 212.965 125.844 213.119V213.696H131.044V213.119C131.044 212.965 130.983 212.819 130.874 212.71C130.766 212.602 130.619 212.541 130.466 212.541Z" fill="#E4EAF6"/>
<rect x="390.139" y="174.139" width="142.304" height="87.7215" rx="5.43038" fill="url(#paint1_linear_98_678)" stroke="#CCCCCC" stroke-width="0.278481"/>
<path d="M426.991 180.848V187.734H425.733L422.738 183.4H422.687V187.734H421.231V180.848H422.509L425.481 185.179H425.542V180.848H426.991ZM431.464 187.734H429.904L432.281 180.848H434.157L436.531 187.734H434.971L433.246 182.422H433.192L431.464 187.734ZM431.366 185.027H435.051V186.164H431.366V185.027ZM438.339 182.048V180.848H443.994V182.048H441.886V187.734H440.447V182.048H438.339ZM448.465 180.848V187.734H447.009V180.848H448.465ZM458.074 184.291C458.074 185.042 457.931 185.681 457.647 186.208C457.364 186.734 456.979 187.137 456.49 187.415C456.004 187.69 455.457 187.828 454.849 187.828C454.237 187.828 453.688 187.689 453.202 187.411C452.715 187.133 452.331 186.731 452.048 186.204C451.766 185.677 451.625 185.04 451.625 184.291C451.625 183.54 451.766 182.901 452.048 182.375C452.331 181.848 452.715 181.447 453.202 181.171C453.688 180.893 454.237 180.754 454.849 180.754C455.457 180.754 456.004 180.893 456.49 181.171C456.979 181.447 457.364 181.848 457.647 182.375C457.931 182.901 458.074 183.54 458.074 184.291ZM456.598 184.291C456.598 183.805 456.525 183.394 456.379 183.06C456.236 182.726 456.033 182.473 455.77 182.301C455.508 182.128 455.201 182.042 454.849 182.042C454.497 182.042 454.19 182.128 453.928 182.301C453.666 182.473 453.462 182.726 453.316 183.06C453.172 183.394 453.101 183.805 453.101 184.291C453.101 184.778 453.172 185.188 453.316 185.522C453.462 185.856 453.666 186.109 453.928 186.282C454.19 186.454 454.497 186.54 454.849 186.54C455.201 186.54 455.508 186.454 455.77 186.282C456.033 186.109 456.236 185.856 456.379 185.522C456.525 185.188 456.598 184.778 456.598 184.291ZM466.995 180.848V187.734H465.737L462.741 183.4H462.691V187.734H461.235V180.848H462.513L465.485 185.179H465.546V180.848H466.995ZM471.468 187.734H469.907L472.285 180.848H474.161L476.535 187.734H474.975L473.25 182.422H473.196L471.468 187.734ZM471.37 185.027H475.055V186.164H471.37V185.027ZM479.447 187.734V180.848H480.902V186.534H483.855V187.734H479.447ZM492.632 180.848V187.734H491.176V180.848H492.632ZM498.354 187.734H495.913V180.848H498.374C499.067 180.848 499.663 180.986 500.163 181.262C500.663 181.535 501.047 181.928 501.316 182.442C501.587 182.955 501.723 183.569 501.723 184.284C501.723 185.002 501.587 185.618 501.316 186.134C501.047 186.649 500.661 187.045 500.156 187.321C499.654 187.596 499.053 187.734 498.354 187.734ZM497.369 186.487H498.293C498.724 186.487 499.086 186.41 499.38 186.258C499.675 186.103 499.897 185.865 500.045 185.542C500.195 185.217 500.271 184.798 500.271 184.284C500.271 183.776 500.195 183.36 500.045 183.037C499.897 182.714 499.677 182.477 499.383 182.324C499.089 182.172 498.727 182.095 498.297 182.095H497.369V186.487Z" fill="#F8C100"/>
<line x1="395.57" y1="193.633" x2="527.013" y2="193.633" stroke="#CCCCCC" stroke-width="0.278481"/>
<path d="M398.161 203.848V206.684H397.829L396.284 204.457H396.256V206.684H395.913V203.848H396.245L397.796 206.08H397.824V203.848H398.161ZM398.965 206.684H398.605L399.646 203.848H400L401.041 206.684H400.681L399.834 204.297H399.812L398.965 206.684ZM399.098 205.576H400.549V205.881H399.098V205.576ZM401.483 203.848H401.893L402.857 206.202H402.89L403.853 203.848H404.263V206.684H403.942V204.529H403.914L403.028 206.684H402.718L401.832 204.529H401.804V206.684H401.483V203.848ZM404.952 206.684V203.848H406.663V204.153H405.295V205.111H406.574V205.415H405.295V206.379H406.685V206.684H404.952Z" fill="#333333"/>
<path d="M396.788 218.937H395.913V216.101H396.827C397.102 216.101 397.337 216.158 397.533 216.272C397.728 216.384 397.878 216.546 397.983 216.758C398.087 216.968 398.139 217.22 398.139 217.514C398.139 217.809 398.087 218.063 397.981 218.276C397.876 218.489 397.723 218.652 397.522 218.766C397.321 218.88 397.076 218.937 396.788 218.937ZM396.256 218.632H396.766C397 218.632 397.195 218.587 397.349 218.496C397.503 218.406 397.618 218.277 397.693 218.11C397.769 217.943 397.807 217.744 397.807 217.514C397.807 217.285 397.77 217.088 397.695 216.922C397.62 216.756 397.508 216.629 397.36 216.54C397.211 216.451 397.026 216.406 396.805 216.406H396.256V218.632ZM401.108 217.519C401.108 217.818 401.054 218.077 400.946 218.294C400.838 218.512 400.689 218.68 400.501 218.798C400.313 218.916 400.098 218.976 399.856 218.976C399.614 218.976 399.399 218.916 399.211 218.798C399.023 218.68 398.874 218.512 398.766 218.294C398.658 218.077 398.604 217.818 398.604 217.519C398.604 217.22 398.658 216.962 398.766 216.744C398.874 216.526 399.023 216.358 399.211 216.24C399.399 216.122 399.614 216.063 399.856 216.063C400.098 216.063 400.313 216.122 400.501 216.24C400.689 216.358 400.838 216.526 400.946 216.744C401.054 216.962 401.108 217.22 401.108 217.519ZM400.775 217.519C400.775 217.274 400.734 217.066 400.652 216.897C400.571 216.729 400.461 216.601 400.321 216.514C400.183 216.427 400.028 216.384 399.856 216.384C399.684 216.384 399.529 216.427 399.389 216.514C399.251 216.601 399.141 216.729 399.059 216.897C398.977 217.066 398.937 217.274 398.937 217.519C398.937 217.765 398.977 217.972 399.059 218.141C399.141 218.31 399.251 218.437 399.389 218.524C399.529 218.611 399.684 218.654 399.856 218.654C400.028 218.654 400.183 218.611 400.321 218.524C400.461 218.437 400.571 218.31 400.652 218.141C400.734 217.972 400.775 217.765 400.775 217.519ZM401.685 218.937V216.101H402.676C402.874 216.101 403.037 216.135 403.165 216.204C403.293 216.271 403.389 216.362 403.452 216.477C403.514 216.59 403.546 216.716 403.546 216.854C403.546 216.976 403.524 217.077 403.481 217.156C403.438 217.236 403.382 217.298 403.312 217.345C403.242 217.391 403.167 217.425 403.086 217.447V217.475C403.173 217.48 403.26 217.511 403.348 217.566C403.435 217.621 403.509 217.701 403.568 217.804C403.627 217.908 403.656 218.034 403.656 218.184C403.656 218.326 403.624 218.454 403.559 218.567C403.495 218.681 403.393 218.771 403.254 218.837C403.114 218.904 402.933 218.937 402.709 218.937H401.685ZM402.028 218.632H402.709C402.934 218.632 403.093 218.589 403.187 218.502C403.282 218.414 403.33 218.308 403.33 218.184C403.33 218.088 403.305 217.999 403.256 217.918C403.207 217.836 403.138 217.77 403.047 217.721C402.957 217.671 402.85 217.646 402.726 217.646H402.028V218.632ZM402.028 217.347H402.665C402.768 217.347 402.862 217.327 402.945 217.286C403.029 217.246 403.095 217.189 403.144 217.115C403.194 217.041 403.219 216.954 403.219 216.854C403.219 216.73 403.176 216.624 403.089 216.537C403.002 216.45 402.864 216.406 402.676 216.406H402.028V217.347Z" fill="#333333"/>
<path d="M397.464 229.063C397.447 228.923 397.38 228.814 397.261 228.736C397.143 228.659 396.998 228.62 396.827 228.62C396.701 228.62 396.591 228.641 396.497 228.681C396.404 228.722 396.331 228.778 396.278 228.849C396.227 228.92 396.201 229 396.201 229.091C396.201 229.167 396.219 229.232 396.255 229.286C396.292 229.34 396.339 229.384 396.396 229.42C396.453 229.456 396.513 229.485 396.576 229.508C396.639 229.53 396.697 229.548 396.749 229.562L397.037 229.639C397.111 229.659 397.193 229.685 397.284 229.719C397.375 229.754 397.462 229.8 397.545 229.859C397.629 229.917 397.698 229.992 397.753 230.084C397.807 230.175 397.835 230.287 397.835 230.42C397.835 230.573 397.794 230.712 397.714 230.835C397.635 230.959 397.518 231.057 397.365 231.13C397.213 231.203 397.028 231.24 396.81 231.24C396.607 231.24 396.431 231.207 396.283 231.141C396.135 231.076 396.019 230.984 395.934 230.867C395.85 230.75 395.802 230.614 395.791 230.459H396.146C396.155 230.566 396.191 230.654 396.254 230.725C396.317 230.794 396.398 230.846 396.494 230.88C396.592 230.913 396.697 230.93 396.81 230.93C396.941 230.93 397.059 230.908 397.163 230.866C397.267 230.822 397.35 230.762 397.411 230.686C397.472 230.608 397.502 230.518 397.502 230.415C397.502 230.32 397.476 230.244 397.423 230.185C397.371 230.126 397.302 230.078 397.216 230.041C397.13 230.004 397.037 229.971 396.937 229.944L396.589 229.844C396.367 229.78 396.192 229.689 396.062 229.571C395.933 229.453 395.869 229.299 395.869 229.108C395.869 228.949 395.912 228.81 395.997 228.692C396.084 228.573 396.2 228.481 396.346 228.415C396.493 228.349 396.657 228.316 396.838 228.316C397.021 228.316 397.183 228.348 397.325 228.414C397.467 228.479 397.58 228.567 397.663 228.68C397.747 228.792 397.791 228.92 397.796 229.063H397.464ZM398.399 231.19V228.354H400.11V228.659H398.742V229.617H400.022V229.922H398.742V230.885H400.133V231.19H398.399ZM400.895 228.354L401.626 229.534H401.649L402.38 228.354H402.784L401.892 229.772L402.784 231.19H402.38L401.649 230.032H401.626L400.895 231.19H400.491L401.405 229.772L400.491 228.354H400.895Z" fill="#333333"/>
<path d="M398.161 239.215V242.051H397.829L396.284 239.824H396.256V242.051H395.913V239.215H396.245L397.796 241.447H397.824V239.215H398.161ZM398.965 242.051H398.605L399.646 239.215H400L401.041 242.051H400.681L399.834 239.664H399.812L398.965 242.051ZM399.098 240.943H400.549V241.248H399.098V240.943ZM400.997 239.52V239.215H403.123V239.52H402.232V242.051H401.888V239.52H400.997ZM403.997 239.215V242.051H403.653V239.215H403.997ZM407.077 240.633C407.077 240.932 407.023 241.19 406.916 241.408C406.808 241.626 406.659 241.794 406.471 241.912C406.283 242.03 406.068 242.089 405.826 242.089C405.584 242.089 405.369 242.03 405.181 241.912C404.992 241.794 404.844 241.626 404.736 241.408C404.628 241.19 404.574 240.932 404.574 240.633C404.574 240.334 404.628 240.075 404.736 239.858C404.844 239.64 404.992 239.472 405.181 239.354C405.369 239.236 405.584 239.176 405.826 239.176C406.068 239.176 406.283 239.236 406.471 239.354C406.659 239.472 406.808 239.64 406.916 239.858C407.023 240.075 407.077 240.334 407.077 240.633ZM406.745 240.633C406.745 240.387 406.704 240.18 406.622 240.011C406.541 239.842 406.43 239.715 406.291 239.628C406.153 239.541 405.998 239.498 405.826 239.498C405.654 239.498 405.499 239.541 405.359 239.628C405.221 239.715 405.111 239.842 405.028 240.011C404.947 240.18 404.907 240.387 404.907 240.633C404.907 240.878 404.947 241.086 405.028 241.255C405.111 241.423 405.221 241.551 405.359 241.638C405.499 241.725 405.654 241.768 405.826 241.768C405.998 241.768 406.153 241.725 406.291 241.638C406.43 241.551 406.541 241.423 406.622 241.255C406.704 241.086 406.745 240.878 406.745 240.633ZM409.903 239.215V242.051H409.571L408.026 239.824H407.998V242.051H407.655V239.215H407.987L409.538 241.447H409.565V239.215H409.903ZM410.707 242.051H410.347L411.388 239.215H411.742L412.783 242.051H412.423L411.576 239.664H411.554L410.707 242.051ZM410.84 240.943H412.29V241.248H410.84V240.943ZM413.225 242.051V239.215H413.568V241.746H414.886V242.051H413.225ZM415.761 239.215V242.051H415.418V239.215H415.761ZM416.295 239.52V239.215H418.421V239.52H417.53V242.051H417.186V239.52H416.295ZM418.708 239.215H419.101L419.887 240.539H419.92L420.707 239.215H421.1L420.075 240.882V242.051H419.732V240.882L418.708 239.215Z" fill="#333333"/>
<path d="M426.922 207.127V203.481H428.154C428.439 203.481 428.673 203.53 428.856 203.627C429.038 203.723 429.174 203.855 429.261 204.024C429.349 204.192 429.393 204.384 429.393 204.599C429.393 204.814 429.349 205.004 429.261 205.17C429.174 205.336 429.039 205.467 428.857 205.562C428.676 205.656 428.444 205.703 428.161 205.703H427.165V205.304H428.147C428.342 205.304 428.498 205.275 428.617 205.218C428.737 205.161 428.824 205.081 428.877 204.976C428.932 204.871 428.959 204.745 428.959 204.599C428.959 204.453 428.932 204.325 428.877 204.216C428.822 204.107 428.735 204.023 428.615 203.963C428.495 203.903 428.337 203.873 428.14 203.873H427.364V207.127H426.922ZM428.638 205.489L429.536 207.127H429.023L428.14 205.489H428.638ZM430.278 207.127H429.815L431.154 203.481H431.61L432.948 207.127H432.486L431.396 204.058H431.368L430.278 207.127ZM430.449 205.703H432.315V206.094H430.449V205.703ZM434.912 203.481H435.353V206.087C435.353 206.32 435.311 206.517 435.225 206.68C435.14 206.842 435.019 206.966 434.864 207.05C434.708 207.134 434.525 207.176 434.314 207.176C434.114 207.176 433.937 207.14 433.781 207.068C433.626 206.994 433.504 206.89 433.415 206.755C433.326 206.619 433.281 206.458 433.281 206.272H433.716C433.716 206.375 433.741 206.466 433.792 206.543C433.844 206.619 433.916 206.678 434.006 206.721C434.096 206.763 434.199 206.785 434.314 206.785C434.441 206.785 434.549 206.758 434.638 206.705C434.727 206.651 434.794 206.573 434.841 206.47C434.888 206.365 434.912 206.238 434.912 206.087V203.481ZM436.238 207.127V203.481H438.438V203.873H436.679V205.104H438.324V205.496H436.679V206.735H438.467V207.127H436.238ZM441.227 204.392C441.206 204.212 441.119 204.072 440.968 203.972C440.816 203.873 440.629 203.823 440.409 203.823C440.247 203.823 440.106 203.849 439.985 203.901C439.865 203.953 439.771 204.025 439.704 204.116C439.637 204.208 439.604 204.312 439.604 204.428C439.604 204.525 439.627 204.609 439.673 204.679C439.721 204.748 439.781 204.805 439.855 204.852C439.929 204.897 440.006 204.934 440.086 204.964C440.167 204.992 440.241 205.015 440.309 205.033L440.679 205.133C440.774 205.158 440.88 205.192 440.996 205.236C441.114 205.28 441.226 205.34 441.332 205.416C441.44 205.491 441.529 205.587 441.599 205.704C441.669 205.822 441.705 205.966 441.705 206.137C441.705 206.334 441.653 206.512 441.55 206.671C441.448 206.83 441.298 206.956 441.101 207.05C440.905 207.144 440.667 207.191 440.387 207.191C440.126 207.191 439.9 207.149 439.709 207.064C439.519 206.98 439.37 206.863 439.26 206.712C439.152 206.561 439.091 206.386 439.077 206.187H439.533C439.545 206.324 439.591 206.438 439.672 206.528C439.754 206.617 439.857 206.684 439.981 206.728C440.107 206.771 440.242 206.792 440.387 206.792C440.556 206.792 440.707 206.765 440.841 206.71C440.975 206.654 441.081 206.577 441.16 206.479C441.238 206.379 441.277 206.263 441.277 206.13C441.277 206.009 441.243 205.91 441.176 205.834C441.108 205.758 441.019 205.697 440.909 205.649C440.798 205.602 440.679 205.56 440.551 205.525L440.102 205.396C439.818 205.314 439.592 205.198 439.426 205.046C439.26 204.894 439.177 204.695 439.177 204.449C439.177 204.245 439.232 204.067 439.342 203.915C439.454 203.762 439.603 203.644 439.791 203.559C439.98 203.474 440.19 203.431 440.423 203.431C440.658 203.431 440.867 203.473 441.049 203.558C441.232 203.641 441.377 203.755 441.484 203.899C441.592 204.044 441.649 204.208 441.655 204.392H441.227ZM442.43 207.127V203.481H442.872V205.104H444.816V203.481H445.257V207.127H444.816V205.496H442.872V207.127H442.43ZM447.551 203.481H448.078L449.316 206.507H449.359L450.598 203.481H451.125V207.127H450.712V204.357H450.676L449.537 207.127H449.138L447.999 204.357H447.964V207.127H447.551V203.481ZM452.452 203.481V207.127H452.01V203.481H452.452ZM455.33 204.392C455.309 204.212 455.222 204.072 455.071 203.972C454.919 203.873 454.732 203.823 454.512 203.823C454.35 203.823 454.209 203.849 454.088 203.901C453.968 203.953 453.874 204.025 453.807 204.116C453.74 204.208 453.707 204.312 453.707 204.428C453.707 204.525 453.73 204.609 453.776 204.679C453.824 204.748 453.884 204.805 453.958 204.852C454.032 204.897 454.109 204.934 454.189 204.964C454.27 204.992 454.344 205.015 454.412 205.033L454.782 205.133C454.877 205.158 454.983 205.192 455.099 205.236C455.217 205.28 455.329 205.34 455.435 205.416C455.543 205.491 455.632 205.587 455.702 205.704C455.772 205.822 455.807 205.966 455.807 206.137C455.807 206.334 455.756 206.512 455.653 206.671C455.551 206.83 455.401 206.956 455.204 207.05C455.008 207.144 454.77 207.191 454.49 207.191C454.229 207.191 454.003 207.149 453.812 207.064C453.622 206.98 453.473 206.863 453.363 206.712C453.255 206.561 453.194 206.386 453.18 206.187H453.636C453.648 206.324 453.694 206.438 453.775 206.528C453.857 206.617 453.96 206.684 454.084 206.728C454.21 206.771 454.345 206.792 454.49 206.792C454.659 206.792 454.81 206.765 454.944 206.71C455.078 206.654 455.184 206.577 455.263 206.479C455.341 206.379 455.38 206.263 455.38 206.13C455.38 206.009 455.346 205.91 455.279 205.834C455.211 205.758 455.122 205.697 455.012 205.649C454.901 205.602 454.782 205.56 454.654 205.525L454.205 205.396C453.921 205.314 453.695 205.198 453.529 205.046C453.363 204.894 453.28 204.695 453.28 204.449C453.28 204.245 453.335 204.067 453.445 203.915C453.557 203.762 453.706 203.644 453.894 203.559C454.083 203.474 454.293 203.431 454.526 203.431C454.761 203.431 454.97 203.473 455.152 203.558C455.335 203.641 455.48 203.755 455.587 203.899C455.695 204.044 455.752 204.208 455.758 204.392H455.33ZM456.533 207.127V203.481H456.975V205.104H458.919V203.481H459.36V207.127H458.919V205.496H456.975V207.127H456.533ZM460.244 207.127V203.481H461.476C461.76 203.481 461.994 203.53 462.177 203.627C462.36 203.723 462.495 203.855 462.583 204.024C462.671 204.192 462.715 204.384 462.715 204.599C462.715 204.814 462.671 205.004 462.583 205.17C462.495 205.336 462.36 205.467 462.179 205.562C461.997 205.656 461.765 205.703 461.483 205.703H460.486V205.304H461.469C461.663 205.304 461.82 205.275 461.938 205.218C462.058 205.161 462.145 205.081 462.198 204.976C462.253 204.871 462.28 204.745 462.28 204.599C462.28 204.453 462.253 204.325 462.198 204.216C462.144 204.107 462.057 204.023 461.937 203.963C461.817 203.903 461.658 203.873 461.461 203.873H460.685V207.127H460.244ZM461.96 205.489L462.857 207.127H462.344L461.461 205.489H461.96ZM463.6 207.127H463.137L464.476 203.481H464.931L466.27 207.127H465.807L464.718 204.058H464.689L463.6 207.127ZM463.771 205.703H465.636V206.094H463.771V205.703Z" fill="#333333"/>
<path d="M426.858 219.38V219.059L428.062 217.742C428.203 217.588 428.319 217.454 428.411 217.34C428.502 217.225 428.57 217.117 428.613 217.016C428.659 216.914 428.681 216.807 428.681 216.695C428.681 216.567 428.65 216.456 428.589 216.363C428.528 216.269 428.445 216.196 428.339 216.145C428.234 216.094 428.115 216.069 427.983 216.069C427.843 216.069 427.721 216.098 427.617 216.156C427.513 216.213 427.433 216.293 427.376 216.396C427.321 216.5 427.293 216.621 427.293 216.76H426.873C426.873 216.546 426.922 216.358 427.02 216.197C427.119 216.036 427.253 215.91 427.423 215.82C427.593 215.729 427.785 215.684 427.998 215.684C428.211 215.684 428.4 215.729 428.565 215.82C428.73 215.91 428.86 216.031 428.953 216.185C429.047 216.338 429.094 216.508 429.094 216.695C429.094 216.83 429.07 216.961 429.021 217.089C428.974 217.216 428.891 217.358 428.772 217.514C428.654 217.67 428.491 217.86 428.282 218.084L427.464 218.96V218.988H429.158V219.38H426.858ZM431.082 219.43C430.814 219.43 430.586 219.357 430.397 219.211C430.208 219.064 430.064 218.85 429.965 218.572C429.865 218.292 429.815 217.953 429.815 217.557C429.815 217.163 429.865 216.827 429.965 216.548C430.065 216.268 430.21 216.054 430.399 215.907C430.589 215.759 430.817 215.684 431.082 215.684C431.348 215.684 431.575 215.759 431.764 215.907C431.954 216.054 432.099 216.268 432.199 216.548C432.299 216.827 432.35 217.163 432.35 217.557C432.35 217.953 432.3 218.292 432.2 218.572C432.101 218.85 431.956 219.064 431.768 219.211C431.579 219.357 431.351 219.43 431.082 219.43ZM431.082 219.038C431.348 219.038 431.555 218.91 431.702 218.653C431.849 218.397 431.923 218.032 431.923 217.557C431.923 217.241 431.889 216.973 431.821 216.751C431.755 216.529 431.659 216.36 431.533 216.243C431.408 216.127 431.258 216.069 431.082 216.069C430.819 216.069 430.613 216.199 430.465 216.459C430.316 216.717 430.242 217.083 430.242 217.557C430.242 217.873 430.275 218.141 430.342 218.362C430.408 218.582 430.504 218.75 430.629 218.865C430.754 218.98 430.906 219.038 431.082 219.038ZM435.732 215.563L434.557 219.928H434.173L435.347 215.563H435.732ZM438.822 219.43C438.553 219.43 438.325 219.357 438.136 219.211C437.948 219.064 437.803 218.85 437.704 218.572C437.604 218.292 437.554 217.953 437.554 217.557C437.554 217.163 437.604 216.827 437.704 216.548C437.805 216.268 437.949 216.054 438.138 215.907C438.328 215.759 438.556 215.684 438.822 215.684C439.088 215.684 439.315 215.759 439.503 215.907C439.693 216.054 439.838 216.268 439.938 216.548C440.039 216.827 440.089 217.163 440.089 217.557C440.089 217.953 440.039 218.292 439.94 218.572C439.84 218.85 439.696 219.064 439.507 219.211C439.318 219.357 439.09 219.43 438.822 219.43ZM438.822 219.038C439.088 219.038 439.294 218.91 439.441 218.653C439.588 218.397 439.662 218.032 439.662 217.557C439.662 217.241 439.628 216.973 439.56 216.751C439.494 216.529 439.398 216.36 439.272 216.243C439.147 216.127 438.997 216.069 438.822 216.069C438.558 216.069 438.352 216.199 438.204 216.459C438.056 216.717 437.982 217.083 437.982 217.557C437.982 217.873 438.015 218.141 438.081 218.362C438.148 218.582 438.243 218.75 438.368 218.865C438.494 218.98 438.645 219.038 438.822 219.038ZM441.905 219.43C441.696 219.43 441.508 219.388 441.34 219.305C441.173 219.222 441.039 219.108 440.938 218.963C440.837 218.818 440.782 218.653 440.773 218.468H441.2C441.216 218.633 441.291 218.77 441.424 218.878C441.558 218.985 441.718 219.038 441.905 219.038C442.054 219.038 442.187 219.003 442.303 218.933C442.421 218.863 442.513 218.767 442.579 218.645C442.647 218.521 442.681 218.382 442.681 218.226C442.681 218.067 442.646 217.925 442.576 217.801C442.507 217.675 442.412 217.576 442.291 217.504C442.17 217.431 442.032 217.394 441.876 217.393C441.765 217.392 441.65 217.409 441.533 217.445C441.415 217.479 441.319 217.524 441.243 217.578L440.83 217.528L441.05 215.734H442.944V216.126H441.421L441.292 217.201H441.314C441.389 217.142 441.482 217.092 441.595 217.053C441.708 217.014 441.825 216.994 441.947 216.994C442.171 216.994 442.369 217.048 442.544 217.155C442.719 217.26 442.857 217.405 442.957 217.589C443.058 217.773 443.108 217.983 443.108 218.219C443.108 218.452 443.056 218.659 442.951 218.842C442.848 219.024 442.706 219.167 442.524 219.273C442.343 219.377 442.136 219.43 441.905 219.43ZM446.521 215.563L445.346 219.928H444.962L446.136 215.563H446.521ZM449.703 215.734V219.38H449.262V216.197H449.24L448.35 216.788V216.339L449.262 215.734H449.703ZM451.912 215.684C452.062 215.686 452.211 215.714 452.361 215.77C452.51 215.826 452.647 215.918 452.77 216.047C452.894 216.176 452.993 216.351 453.068 216.573C453.142 216.795 453.18 217.073 453.18 217.407C453.18 217.731 453.149 218.019 453.087 218.271C453.027 218.521 452.939 218.732 452.824 218.904C452.71 219.077 452.571 219.207 452.407 219.296C452.245 219.385 452.061 219.43 451.855 219.43C451.651 219.43 451.469 219.389 451.309 219.309C451.15 219.227 451.019 219.113 450.917 218.969C450.816 218.823 450.752 218.653 450.723 218.461H451.158C451.197 218.629 451.274 218.767 451.391 218.876C451.508 218.984 451.663 219.038 451.855 219.038C452.137 219.038 452.358 218.915 452.521 218.67C452.685 218.424 452.767 218.077 452.767 217.628H452.738C452.672 217.728 452.593 217.814 452.501 217.886C452.41 217.959 452.309 218.014 452.197 218.054C452.086 218.093 451.967 218.112 451.841 218.112C451.632 218.112 451.441 218.061 451.266 217.957C451.093 217.853 450.954 217.71 450.85 217.528C450.746 217.346 450.695 217.137 450.695 216.902C450.695 216.679 450.745 216.475 450.844 216.29C450.945 216.103 451.086 215.955 451.268 215.845C451.451 215.734 451.665 215.681 451.912 215.684ZM451.912 216.076C451.763 216.076 451.628 216.113 451.508 216.188C451.39 216.262 451.295 216.361 451.225 216.487C451.156 216.612 451.122 216.75 451.122 216.902C451.122 217.054 451.155 217.192 451.222 217.317C451.289 217.44 451.381 217.539 451.498 217.612C451.615 217.685 451.749 217.721 451.898 217.721C452.011 217.721 452.116 217.699 452.213 217.655C452.31 217.61 452.395 217.549 452.468 217.472C452.541 217.393 452.599 217.305 452.64 217.206C452.682 217.107 452.703 217.003 452.703 216.895C452.703 216.752 452.668 216.619 452.599 216.494C452.532 216.37 452.438 216.269 452.318 216.192C452.199 216.115 452.064 216.076 451.912 216.076ZM455.047 219.43C454.803 219.43 454.587 219.386 454.399 219.3C454.213 219.212 454.068 219.091 453.963 218.938C453.859 218.784 453.807 218.608 453.808 218.411C453.807 218.257 453.838 218.115 453.899 217.984C453.961 217.852 454.045 217.743 454.152 217.655C454.26 217.566 454.38 217.51 454.513 217.486V217.464C454.339 217.419 454.2 217.321 454.097 217.171C453.994 217.019 453.943 216.846 453.944 216.653C453.943 216.468 453.989 216.302 454.084 216.156C454.179 216.01 454.31 215.895 454.476 215.811C454.643 215.726 454.834 215.684 455.047 215.684C455.259 215.684 455.447 215.726 455.613 215.811C455.78 215.895 455.91 216.01 456.005 216.156C456.101 216.302 456.15 216.468 456.151 216.653C456.15 216.846 456.097 217.019 455.993 217.171C455.889 217.321 455.752 217.419 455.581 217.464V217.486C455.713 217.51 455.832 217.566 455.937 217.655C456.043 217.743 456.127 217.852 456.19 217.984C456.253 218.115 456.285 218.257 456.286 218.411C456.285 218.608 456.232 218.784 456.126 218.938C456.022 219.091 455.876 219.212 455.69 219.3C455.505 219.386 455.291 219.43 455.047 219.43ZM455.047 219.038C455.212 219.038 455.355 219.011 455.475 218.958C455.594 218.904 455.687 218.829 455.752 218.732C455.818 218.635 455.851 218.521 455.852 218.39C455.851 218.252 455.815 218.131 455.745 218.025C455.675 217.92 455.58 217.836 455.459 217.776C455.339 217.715 455.202 217.685 455.047 217.685C454.892 217.685 454.753 217.715 454.631 217.776C454.51 217.836 454.414 217.92 454.344 218.025C454.275 218.131 454.242 218.252 454.243 218.39C454.242 218.521 454.273 218.635 454.337 218.732C454.402 218.829 454.496 218.904 454.617 218.958C454.738 219.011 454.881 219.038 455.047 219.038ZM455.047 217.308C455.178 217.308 455.294 217.282 455.395 217.229C455.497 217.177 455.577 217.104 455.635 217.01C455.693 216.917 455.723 216.807 455.724 216.681C455.723 216.558 455.694 216.45 455.637 216.359C455.58 216.266 455.501 216.195 455.4 216.145C455.299 216.094 455.182 216.069 455.047 216.069C454.911 216.069 454.792 216.094 454.69 216.145C454.588 216.195 454.509 216.266 454.453 216.359C454.397 216.45 454.37 216.558 454.371 216.681C454.37 216.807 454.398 216.917 454.455 217.01C454.513 217.104 454.593 217.177 454.695 217.229C454.797 217.282 454.915 217.308 455.047 217.308ZM458.129 215.684C458.279 215.686 458.428 215.714 458.578 215.77C458.727 215.826 458.864 215.918 458.987 216.047C459.111 216.176 459.21 216.351 459.284 216.573C459.359 216.795 459.397 217.073 459.397 217.407C459.397 217.731 459.366 218.019 459.304 218.271C459.243 218.521 459.156 218.732 459.041 218.904C458.927 219.077 458.788 219.207 458.624 219.296C458.461 219.385 458.277 219.43 458.072 219.43C457.868 219.43 457.686 219.389 457.526 219.309C457.367 219.227 457.236 219.113 457.134 218.969C457.033 218.823 456.969 218.653 456.94 218.461H457.374C457.414 218.629 457.491 218.767 457.608 218.876C457.725 218.984 457.88 219.038 458.072 219.038C458.353 219.038 458.575 218.915 458.738 218.67C458.902 218.424 458.984 218.077 458.984 217.628H458.955C458.889 217.728 458.81 217.814 458.718 217.886C458.627 217.959 458.526 218.014 458.414 218.054C458.302 218.093 458.184 218.112 458.058 218.112C457.849 218.112 457.657 218.061 457.483 217.957C457.31 217.853 457.171 217.71 457.066 217.528C456.963 217.346 456.912 217.137 456.912 216.902C456.912 216.679 456.961 216.475 457.061 216.29C457.162 216.103 457.303 215.955 457.485 215.845C457.668 215.734 457.882 215.681 458.129 215.684ZM458.129 216.076C457.98 216.076 457.845 216.113 457.725 216.188C457.606 216.262 457.512 216.361 457.442 216.487C457.373 216.612 457.339 216.75 457.339 216.902C457.339 217.054 457.372 217.192 457.438 217.317C457.506 217.44 457.598 217.539 457.714 217.612C457.832 217.685 457.965 217.721 458.115 217.721C458.228 217.721 458.333 217.699 458.43 217.655C458.527 217.61 458.612 217.549 458.685 217.472C458.758 217.393 458.816 217.305 458.857 217.206C458.899 217.107 458.919 217.003 458.919 216.895C458.919 216.752 458.885 216.619 458.816 216.494C458.749 216.37 458.655 216.269 458.535 216.192C458.416 216.115 458.281 216.076 458.129 216.076Z" fill="#333333"/>
<path d="M426.922 227.987H427.449L428.688 231.013H428.731L429.97 227.987H430.497V231.633H430.084V228.863H430.048L428.909 231.633H428.51L427.371 228.863H427.335V231.633H426.922V227.987ZM431.531 231.633H431.069L432.407 227.987H432.863L434.202 231.633H433.739L432.649 228.564H432.621L431.531 231.633ZM431.702 230.209H433.568V230.6H431.702V230.209ZM434.769 231.633V227.987H435.211V231.241H436.905V231.633H434.769ZM437.589 231.633V227.987H439.789V228.379H438.03V229.611H439.675V230.002H438.03V231.241H439.818V231.633H437.589Z" fill="#333333"/>
<path d="M427.364 238.848V242.494H426.922V238.848H427.364ZM431.14 238.848V242.494H430.713L428.726 239.631H428.69V242.494H428.249V238.848H428.676L430.67 241.718H430.705V238.848H431.14ZM433.148 242.494H432.023V238.848H433.198C433.552 238.848 433.854 238.921 434.106 239.067C434.357 239.212 434.55 239.42 434.684 239.692C434.818 239.962 434.886 240.286 434.886 240.664C434.886 241.043 434.818 241.37 434.683 241.645C434.547 241.918 434.35 242.128 434.092 242.275C433.833 242.421 433.518 242.494 433.148 242.494ZM432.465 242.102H433.12C433.421 242.102 433.671 242.044 433.869 241.928C434.067 241.811 434.215 241.646 434.312 241.431C434.41 241.216 434.458 240.96 434.458 240.664C434.458 240.369 434.41 240.116 434.314 239.904C434.218 239.69 434.074 239.526 433.883 239.412C433.692 239.297 433.454 239.24 433.17 239.24H432.465V242.102ZM436.067 238.848V242.494H435.626V238.848H436.067ZM437.102 242.494H436.639L437.978 238.848H438.434L439.772 242.494H439.309L438.22 239.425H438.192L437.102 242.494ZM437.273 241.07H439.139V241.461H437.273V241.07ZM443.231 238.848V242.494H442.804L440.817 239.631H440.782V242.494H440.34V238.848H440.767L442.761 241.718H442.797V238.848H443.231Z" fill="#333333"/>
<rect x="496.937" y="202.684" width="29.7975" height="35.924" rx="1.39241" fill="#D9D9D9"/>
<path d="M517.155 228.876V224.832H506.757V228.876L511.956 233.497L517.155 228.876Z" fill="#E6AF78"/>
<path d="M525.194 230.767L518.046 229.086C517.938 229.06 517.839 229.017 517.746 228.965L511.956 232.342L506.392 228.801C506.245 228.941 506.064 229.039 505.866 229.086L498.718 230.768C497.674 231.013 496.937 231.945 496.937 233.017V237.541C496.937 238.179 497.454 238.696 498.092 238.696H525.82C526.458 238.696 526.975 238.179 526.975 237.541V233.017C526.976 231.944 526.238 231.013 525.194 230.767Z" fill="#EFF2FA"/>
<path d="M506.757 224.832V229.099C513.306 231.458 517.155 225.553 517.155 225.553V224.832H506.757V224.832Z" fill="#D29B6E"/>
<path d="M504.447 211.546L504.95 222.621C504.973 223.132 505.109 223.631 505.348 224.083C505.587 224.536 505.924 224.929 506.333 225.236L508.721 227.028C509.321 227.477 510.051 227.721 510.801 227.721H513.112C513.862 227.721 514.591 227.478 515.191 227.028L517.58 225.236C517.989 224.929 518.325 224.536 518.564 224.083C518.803 223.631 518.939 223.132 518.963 222.621L519.466 211.546H504.447Z" fill="#F0C087"/>
<path d="M510.223 213.857C512.534 213.857 516 213.279 516.822 211.546H504.447L504.95 222.621C504.973 223.132 505.109 223.631 505.348 224.083C505.587 224.536 505.924 224.929 506.333 225.236L508.721 227.028C509.321 227.477 510.051 227.721 510.801 227.721H511.956C510.801 227.721 508.49 225.41 508.49 222.522V215.59C508.49 215.012 509.068 213.857 510.223 213.857Z" fill="#E6AF78"/>
<path d="M501.178 234.947L497.435 231.585C497.112 231.992 496.937 232.497 496.937 233.017V237.541C496.937 238.179 497.454 238.696 498.092 238.696H502.136V237.096C502.136 236.691 502.051 236.29 501.886 235.92C501.72 235.55 501.479 235.218 501.178 234.947ZM522.735 234.947L526.478 231.585C526.801 231.992 526.976 232.497 526.976 233.017V237.541C526.976 238.179 526.458 238.696 525.82 238.696H521.777V237.096C521.777 236.691 521.862 236.29 522.027 235.92C522.192 235.55 522.433 235.218 522.735 234.947Z" fill="#E4EAF6"/>
<path d="M513.4 238.696H510.512L510.873 233.497H513.039L513.4 238.696Z" fill="#5B5D6E"/>
<path d="M513.4 232.342H510.512V233.429C510.512 233.786 510.801 234.075 511.158 234.075H512.754C513.111 234.075 513.4 233.786 513.4 233.429V232.342H513.4Z" fill="#515262"/>
<path d="M506.676 227.59L511.956 232.342C511.956 232.342 510.477 233.089 508.653 234.593C508.276 234.904 507.707 234.778 507.505 234.334L505.024 228.876L505.809 227.699C506.004 227.406 506.414 227.354 506.676 227.59Z" fill="#E4EAF6"/>
<path d="M517.236 227.59L511.956 232.342C511.956 232.342 513.435 233.089 515.26 234.593C515.636 234.904 516.206 234.778 516.408 234.334L518.888 228.876L518.104 227.699C517.908 227.406 517.498 227.354 517.236 227.59Z" fill="#E4EAF6"/>
<path d="M515.458 207.719L516 211.546C518.472 212.04 518.828 215.92 518.879 217.028C518.889 217.229 518.953 217.423 519.062 217.593L520.005 219.056C520.005 219.056 519.682 216.637 521.161 215.012C521.161 215.012 521.668 205.408 515.458 207.719Z" fill="#785550"/>
<path d="M520.585 218.809L519.933 221.418C519.895 221.568 519.808 221.702 519.686 221.797C519.564 221.892 519.414 221.944 519.259 221.944C519.089 221.944 518.926 221.882 518.799 221.77C518.672 221.658 518.591 221.504 518.57 221.336L518.236 218.668C518.147 217.953 518.704 217.323 519.423 217.323H519.424C520.202 217.323 520.773 218.054 520.585 218.809Z" fill="#F0C087"/>
<path d="M505 206.684L505.854 207.268C501.991 210.12 502.713 215.012 502.713 215.012C503.869 216.167 503.869 219.056 503.869 219.056L505.024 217.9C505.024 217.9 504.578 214.563 506.757 213.279C508.779 212.088 510.548 212.701 512.353 212.701C517.191 212.701 518.545 210.878 518.31 208.658C518.189 207.509 516.432 205.115 511.956 205.192C510.15 205.222 506.757 205.769 505 206.684Z" fill="#694B4B"/>
<path d="M504.663 212.196C504.663 212.196 504.049 209.777 505.854 207.268C501.991 210.12 502.713 215.012 502.713 215.012C503.869 216.167 503.869 219.056 503.869 219.056L505.024 217.9C505.024 217.9 504.578 214.563 506.757 213.279C508.779 212.088 510.548 212.701 512.353 212.701C513.14 212.701 513.826 212.649 514.436 212.558C510.711 212.683 508.514 209.861 504.663 212.196Z" fill="#5A4146"/>
<path d="M503.328 218.809L503.98 221.418C504.018 221.568 504.104 221.702 504.226 221.797C504.348 221.892 504.499 221.944 504.654 221.944C505.004 221.944 505.299 221.683 505.343 221.336L505.676 218.668C505.766 217.953 505.209 217.323 504.489 217.323H504.489C503.71 217.323 503.139 218.054 503.328 218.809Z" fill="#E6AF78"/>
<path d="M519.466 237.541H515.422C515.269 237.541 515.122 237.602 515.014 237.71C514.905 237.819 514.844 237.965 514.844 238.119V238.696H520.044V238.119C520.044 237.965 519.983 237.819 519.874 237.71C519.766 237.602 519.619 237.541 519.466 237.541Z" fill="#E4EAF6"/>
<defs>
<linearGradient id="paint0_linear_98_678" x1="72.2911" y1="181.582" x2="72.2911" y2="235.329" gradientUnits="userSpaceOnUse">
<stop stop-color="white"/>
<stop offset="1" stop-color="#E6E6E6"/>
</linearGradient>
<linearGradient id="paint1_linear_98_678" x1="461.291" y1="206.582" x2="461.291" y2="260.329" gradientUnits="userSpaceOnUse">
<stop stop-color="white"/>
<stop offset="1" stop-color="#E6E6E6"/>
</linearGradient>
</defs>
</svg>
